<svg width="100" height="100" viewBox="0 0 100 100" fill="none" xmlns="http://www.w3.org/2000/svg">
<g id="mdi:arrow-right-bold-circle">
<path id="Vector" d="M8.33337 50C8.33337 38.9494 12.7232 28.3513 20.5373 20.5373C28.3513 12.7232 38.9494 8.33337 50 8.33337C55.4718 8.33337 60.8899 9.41111 65.9452 11.5051C71.0004 13.599 75.5937 16.6681 79.4628 20.5373C83.3319 24.4064 86.4011 28.9997 88.495 34.0549C90.589 39.1101 91.6667 44.5283 91.6667 50C91.6667 61.0507 87.2768 71.6488 79.4628 79.4628C71.6488 87.2768 61.0507 91.6667 50 91.6667C44.5283 91.6667 39.1101 90.589 34.0549 88.495C28.9997 86.4011 24.4064 83.3319 20.5373 79.4628C12.7232 71.6488 8.33337 61.0507 8.33337 50ZM70.8334 50L50 29.1667V41.6667H33.3334V58.3334H50V70.8334L70.8334 50Z" fill="#4080E1"/>
</g>
</svg>
