<svg width="100" height="100" viewBox="0 0 100 100" fill="none" xmlns="http://www.w3.org/2000/svg">
<g id="mdi:arrow-right-bold-circle">
<path id="Vector" d="M91.6667 50C91.6667 61.0506 87.2768 71.6487 79.4628 79.4627C71.6488 87.2768 61.0507 91.6666 50 91.6666C44.5283 91.6666 39.1101 90.5889 34.0549 88.4949C28.9996 86.401 24.4063 83.3319 20.5372 79.4627C16.6681 75.5936 13.599 71.0003 11.505 65.9451C9.41107 60.8899 8.33334 55.4717 8.33334 50C8.33334 38.9493 12.7232 28.3512 20.5372 20.5372C28.3512 12.7232 38.9493 8.3333 50 8.3333C55.4717 8.3333 60.8899 9.41103 65.9451 11.505C71.0004 13.5989 75.5937 16.6681 79.4628 20.5372C87.2768 28.3512 91.6667 38.9493 91.6667 50ZM29.1667 50L50 70.8333L50 58.3333L66.6667 58.3333V41.6666L50 41.6666V29.1666L29.1667 50Z" fill="#4080E1"/>
</g>
</svg>
