<svg width="550" height="451" viewBox="0 0 550 451" fill="none" xmlns="http://www.w3.org/2000/svg">
<g filter="url(#filter0_d_3_16789)">
<path d="M20 36C20 24.9543 28.9543 16 40 16H510C521.046 16 530 24.9543 530 36V407C530 418.046 521.046 427 510 427H40C28.9543 427 20 418.046 20 407V36Z" fill="white" shape-rendering="crispEdges"/>
<path d="M109.575 69.885C107.265 67.5517 106.11 64.5067 106.11 60.75C106.11 56.9933 107.265 53.96 109.575 51.65C111.908 49.3167 114.953 48.15 118.71 48.15C122.443 48.15 125.465 49.3167 127.775 51.65C130.108 53.96 131.275 56.9933 131.275 60.75C131.275 64.5067 130.108 67.5517 127.775 69.885C125.465 72.195 122.443 73.35 118.71 73.35C114.953 73.35 111.908 72.195 109.575 69.885ZM113.915 52.77C112.748 54.6133 112.165 57.2733 112.165 60.75C112.165 64.2267 112.748 66.8983 113.915 68.765C115.105 70.6083 116.703 71.53 118.71 71.53C120.717 71.53 122.303 70.6083 123.47 68.765C124.66 66.8983 125.255 64.2267 125.255 60.75C125.255 57.2733 124.66 54.6133 123.47 52.77C122.303 50.9033 120.717 49.97 118.71 49.97C116.703 49.97 115.105 50.9033 113.915 52.77ZM149.739 69.115L150.509 69.92C150.462 70.0133 150.381 70.1417 150.264 70.305C150.147 70.445 149.879 70.7133 149.459 71.11C149.062 71.5067 148.607 71.8567 148.094 72.16C147.581 72.4633 146.881 72.7433 145.994 73C145.107 73.2333 144.162 73.35 143.159 73.35C140.429 73.35 138.236 72.5567 136.579 70.97C134.946 69.36 134.129 67.2367 134.129 64.6C134.129 61.9867 134.957 59.8983 136.614 58.335C138.271 56.7483 140.581 55.955 143.544 55.955C145.644 55.955 147.312 56.3633 148.549 57.18C149.809 57.9733 150.439 59.0933 150.439 60.54C150.439 60.8433 150.404 61.1467 150.334 61.45C150.264 61.7533 150.206 61.975 150.159 62.115L150.054 62.325C149.097 62.605 147.732 62.745 145.959 62.745L145.539 62.325C145.749 61.7883 145.854 61.135 145.854 60.365C145.854 58.545 145.061 57.635 143.474 57.635C142.331 57.635 141.444 58.2067 140.814 59.35C140.207 60.4933 139.904 61.9983 139.904 63.865C139.904 66.245 140.324 67.9717 141.164 69.045C142.027 70.1183 143.299 70.655 144.979 70.655C145.866 70.655 146.706 70.5267 147.499 70.27C148.292 70.0133 148.864 69.7567 149.214 69.5L149.739 69.115ZM169.379 59L168.959 59.42C167.955 58.72 166.322 58.37 164.059 58.37H163.359V73H158.179V58.37H157.514C156.51 58.37 155.6 58.4633 154.784 58.65C153.967 58.8133 153.407 58.9767 153.104 59.14L152.614 59.42L152.194 59V56.305H169.379V59ZM179.614 55.955C184.444 55.955 186.859 57.6117 186.859 60.925V69.465C186.859 70.445 187.256 70.935 188.049 70.935C188.212 70.935 188.364 70.9117 188.504 70.865C188.644 70.8183 188.737 70.7833 188.784 70.76L188.889 70.69L189.694 71.495C189.577 71.635 189.414 71.81 189.204 72.02C188.994 72.23 188.504 72.51 187.734 72.86C186.964 73.1867 186.124 73.35 185.214 73.35C183.301 73.35 182.157 72.65 181.784 71.25C180.174 72.65 178.261 73.35 176.044 73.35C174.527 73.35 173.372 72.965 172.579 72.195C171.786 71.425 171.389 70.3283 171.389 68.905C171.389 67.5283 171.891 66.4783 172.894 65.755C173.921 65.0317 175.846 64.4717 178.669 64.075L181.679 63.69V59.945C181.679 58.405 180.932 57.635 179.439 57.635C178.622 57.635 177.981 57.8683 177.514 58.335C177.047 58.8017 176.814 59.455 176.814 60.295C176.814 60.5983 176.837 60.9017 176.884 61.205C176.931 61.5083 176.977 61.73 177.024 61.87L177.129 62.08L176.709 62.5C175.939 62.5 175.204 62.465 174.504 62.395C173.804 62.325 173.302 62.255 172.999 62.185L172.544 62.08C172.287 61.66 172.159 61.1117 172.159 60.435C172.159 59.035 172.801 57.9383 174.084 57.145C175.391 56.3517 177.234 55.955 179.614 55.955ZM176.744 68.24C176.744 69.78 177.491 70.55 178.984 70.55C179.451 70.55 179.906 70.4683 180.349 70.305C180.816 70.1417 181.154 69.99 181.364 69.85L181.679 69.605V65.51L179.264 65.825C178.354 65.9417 177.701 66.1983 177.304 66.595C176.931 66.9683 176.744 67.5167 176.744 68.24ZM190.375 69.01L190.795 68.59C191.238 68.8233 191.682 68.94 192.125 68.94C193.898 68.94 194.785 66.5717 194.785 61.835C194.785 60.7383 194.727 59.77 194.61 58.93C194.517 58.0667 194.423 57.4833 194.33 57.18L194.155 56.725L194.575 56.305H207.28V73H202.1V58.51H197.585V61.415C197.585 65.0783 197.165 67.9833 196.325 70.13C195.485 72.2767 194.213 73.35 192.51 73.35C192.23 73.35 191.95 73.315 191.67 73.245C191.39 73.175 191.18 73.1167 191.04 73.07L190.795 72.965C190.515 71.9617 190.375 70.6433 190.375 69.01ZM216.112 73H212.087V62.5C212.087 61.3333 212.028 60.2717 211.912 59.315C211.795 58.335 211.69 57.6583 211.597 57.285L211.422 56.725L211.842 56.305H217.267V65.195L217.127 66.875L217.267 67.05L224.127 56.305H228.152V73H222.972V63.76L223.112 62.395L222.972 62.255L216.112 73ZM247.322 69.115L248.092 69.92C248.045 70.0133 247.964 70.1417 247.847 70.305C247.73 70.445 247.462 70.7133 247.042 71.11C246.645 71.5067 246.19 71.8567 245.677 72.16C245.164 72.4633 244.464 72.7433 243.577 73C242.69 73.2333 241.745 73.35 240.742 73.35C238.012 73.35 235.819 72.5567 234.162 70.97C232.529 69.36 231.712 67.2367 231.712 64.6C231.712 61.9867 232.54 59.8983 234.197 58.335C235.854 56.7483 238.164 55.955 241.127 55.955C243.227 55.955 244.895 56.3633 246.132 57.18C247.392 57.9733 248.022 59.0933 248.022 60.54C248.022 60.8433 247.987 61.1467 247.917 61.45C247.847 61.7533 247.789 61.975 247.742 62.115L247.637 62.325C246.68 62.605 245.315 62.745 243.542 62.745L243.122 62.325C243.332 61.7883 243.437 61.135 243.437 60.365C243.437 58.545 242.644 57.635 241.057 57.635C239.914 57.635 239.027 58.2067 238.397 59.35C237.79 60.4933 237.487 61.9983 237.487 63.865C237.487 66.245 237.907 67.9717 238.747 69.045C239.61 70.1183 240.882 70.655 242.562 70.655C243.449 70.655 244.289 70.5267 245.082 70.27C245.875 70.0133 246.447 69.7567 246.797 69.5L247.322 69.115ZM251.667 73V62.5C251.667 61.3333 251.608 60.2717 251.492 59.315C251.375 58.335 251.27 57.6583 251.177 57.285L251.002 56.725L251.422 56.305H256.847V62.99H259.892C262.015 62.99 263.73 63.4567 265.037 64.39C266.367 65.3 267.032 66.5017 267.032 67.995C267.032 69.4883 266.367 70.7017 265.037 71.635C263.73 72.545 262.015 73 259.892 73H251.667ZM258.877 65.16H256.847V70.795H258.877C259.74 70.795 260.428 70.55 260.942 70.06C261.455 69.57 261.712 68.8817 261.712 67.995C261.712 67.1083 261.455 66.42 260.942 65.93C260.428 65.4167 259.74 65.16 258.877 65.16ZM278.498 73V62.5C278.498 61.3333 278.44 60.2717 278.323 59.315C278.206 58.335 278.101 57.6583 278.008 57.285L277.833 56.725L278.253 56.305H286.828C288.998 56.305 290.655 56.7017 291.798 57.495C292.941 58.2883 293.513 59.35 293.513 60.68C293.513 62.4767 292.51 63.7483 290.503 64.495C293.186 65.0783 294.528 66.4433 294.528 68.59C294.528 69.9433 293.933 71.0167 292.743 71.81C291.576 72.6033 289.838 73 287.528 73H278.498ZM286.408 65.685H283.678V70.795H286.408C287.295 70.795 287.983 70.5733 288.473 70.13C288.986 69.6867 289.243 69.0567 289.243 68.24C289.243 67.4233 288.986 66.7933 288.473 66.35C287.983 65.9067 287.295 65.685 286.408 65.685ZM285.813 58.51H283.678V63.515H285.813C286.7 63.515 287.388 63.305 287.878 62.885C288.368 62.4417 288.613 61.8233 288.613 61.03C288.613 60.2367 288.368 59.6183 287.878 59.175C287.388 58.7317 286.7 58.51 285.813 58.51ZM299.447 70.935C297.767 69.325 296.927 67.225 296.927 64.635C296.927 62.045 297.767 59.9567 299.447 58.37C301.127 56.76 303.32 55.955 306.027 55.955C308.734 55.955 310.915 56.76 312.572 58.37C314.252 59.9567 315.092 62.045 315.092 64.635C315.092 67.225 314.252 69.325 312.572 70.935C310.892 72.545 308.71 73.35 306.027 73.35C303.32 73.35 301.127 72.545 299.447 70.935ZM302.702 64.635C302.702 66.8983 303.005 68.6367 303.612 69.85C304.219 71.0633 305.024 71.67 306.027 71.67C307.03 71.67 307.824 71.0633 308.407 69.85C309.014 68.6367 309.317 66.8983 309.317 64.635C309.317 62.395 309.014 60.6683 308.407 59.455C307.824 58.2417 307.03 57.635 306.027 57.635C305.024 57.635 304.219 58.2417 303.612 59.455C303.005 60.6683 302.702 62.395 302.702 64.635ZM329.715 73V58.51H324.01V73H318.83V62.5C318.83 61.3333 318.772 60.2717 318.655 59.315C318.538 58.335 318.433 57.6583 318.34 57.285L318.165 56.725L318.585 56.305H334.895V73H329.715ZM344.825 81.75H339.645V66.035C339.645 64.075 339.564 62.325 339.4 60.785C339.237 59.2217 339.085 58.16 338.945 57.6L338.7 56.725L339.155 56.305C340.089 56.305 340.987 56.27 341.85 56.2C342.737 56.13 343.379 56.06 343.775 55.99L344.405 55.885L344.825 56.305L344.685 57.74L344.825 57.915C344.965 57.775 345.175 57.6 345.455 57.39C345.735 57.1567 346.319 56.865 347.205 56.515C348.092 56.1417 349.014 55.955 349.97 55.955C352.024 55.955 353.669 56.7017 354.905 58.195C356.165 59.6883 356.795 61.7183 356.795 64.285C356.795 67.1083 356.025 69.325 354.485 70.935C352.969 72.545 350.869 73.35 348.185 73.35C346.995 73.35 345.875 73.175 344.825 72.825V81.75ZM351.02 65.09C351.02 60.9133 349.807 58.825 347.38 58.825C346.937 58.825 346.494 58.895 346.05 59.035C345.63 59.175 345.315 59.315 345.105 59.455L344.825 59.665V69.535C344.849 70.165 345.105 70.6667 345.595 71.04C346.085 71.4133 346.692 71.6 347.415 71.6C348.535 71.6 349.41 71.0633 350.04 69.99C350.694 68.8933 351.02 67.26 351.02 65.09ZM361.825 70.935C360.145 69.325 359.305 67.225 359.305 64.635C359.305 62.045 360.145 59.9567 361.825 58.37C363.505 56.76 365.698 55.955 368.405 55.955C371.112 55.955 373.293 56.76 374.95 58.37C376.63 59.9567 377.47 62.045 377.47 64.635C377.47 67.225 376.63 69.325 374.95 70.935C373.27 72.545 371.088 73.35 368.405 73.35C365.698 73.35 363.505 72.545 361.825 70.935ZM365.08 64.635C365.08 66.8983 365.383 68.6367 365.99 69.85C366.597 71.0633 367.402 71.67 368.405 71.67C369.408 71.67 370.202 71.0633 370.785 69.85C371.392 68.6367 371.695 66.8983 371.695 64.635C371.695 62.395 371.392 60.6683 370.785 59.455C370.202 58.2417 369.408 57.635 368.405 57.635C367.402 57.635 366.597 58.2417 365.99 59.455C365.383 60.6683 365.08 62.395 365.08 64.635ZM395.628 69.115L396.398 69.92C396.351 70.0133 396.269 70.1417 396.153 70.305C396.036 70.445 395.768 70.7133 395.348 71.11C394.951 71.5067 394.496 71.8567 393.983 72.16C393.469 72.4633 392.769 72.7433 391.883 73C390.996 73.2333 390.051 73.35 389.048 73.35C386.318 73.35 384.124 72.5567 382.468 70.97C380.834 69.36 380.018 67.2367 380.018 64.6C380.018 61.9867 380.846 59.8983 382.503 58.335C384.159 56.7483 386.469 55.955 389.433 55.955C391.533 55.955 393.201 56.3633 394.438 57.18C395.698 57.9733 396.328 59.0933 396.328 60.54C396.328 60.8433 396.293 61.1467 396.223 61.45C396.153 61.7533 396.094 61.975 396.048 62.115L395.943 62.325C394.986 62.605 393.621 62.745 391.848 62.745L391.428 62.325C391.638 61.7883 391.743 61.135 391.743 60.365C391.743 58.545 390.949 57.635 389.363 57.635C388.219 57.635 387.333 58.2067 386.703 59.35C386.096 60.4933 385.793 61.9983 385.793 63.865C385.793 66.245 386.213 67.9717 387.053 69.045C387.916 70.1183 389.188 70.655 390.868 70.655C391.754 70.655 392.594 70.5267 393.388 70.27C394.181 70.0133 394.753 69.7567 395.103 69.5L395.628 69.115ZM399.972 73V62.5C399.972 61.3333 399.914 60.2717 399.797 59.315C399.681 58.335 399.576 57.6583 399.482 57.285L399.307 56.725L399.727 56.305H405.152V62.99H408.197C410.321 62.99 412.036 63.4567 413.342 64.39C414.672 65.3 415.337 66.5017 415.337 67.995C415.337 69.4883 414.672 70.7017 413.342 71.635C412.036 72.545 410.321 73 408.197 73H399.972ZM417.437 73V62.5C417.437 61.3333 417.414 60.26 417.367 59.28C417.321 58.2767 417.274 57.5767 417.227 57.18L417.157 56.585L417.437 56.305H422.617V73H417.437ZM407.182 65.16H405.152V70.795H407.182C408.046 70.795 408.734 70.55 409.247 70.06C409.761 69.57 410.017 68.8817 410.017 67.995C410.017 67.1083 409.761 66.42 409.247 65.93C408.734 65.4167 408.046 65.16 407.182 65.16ZM432.669 72.615C432.179 72.1017 431.934 71.4367 431.934 70.62C431.934 69.8033 432.179 69.1383 432.669 68.625C433.182 68.1117 433.847 67.855 434.664 67.855C435.48 67.855 436.145 68.1117 436.659 68.625C437.172 69.1383 437.429 69.8033 437.429 70.62C437.429 71.4367 437.172 72.1017 436.659 72.615C436.145 73.105 435.48 73.35 434.664 73.35C433.847 73.35 433.182 73.105 432.669 72.615ZM443.729 54.555C443.729 55.6283 443.484 56.6433 442.994 57.6C442.527 58.5333 441.944 59.2917 441.244 59.875C440.567 60.435 439.89 60.925 439.214 61.345C438.537 61.765 437.965 62.0567 437.499 62.22L436.764 62.5L436.624 65.195H432.739L432.529 60.33C432.692 60.3067 432.89 60.2717 433.124 60.225C433.38 60.155 433.835 59.9683 434.489 59.665C435.142 59.3617 435.714 59 436.204 58.58C436.694 58.16 437.137 57.5417 437.534 56.725C437.954 55.9083 438.164 54.9983 438.164 53.995C438.164 52.7583 437.86 51.7783 437.254 51.055C436.67 50.3317 435.842 49.97 434.769 49.97C433.742 49.97 432.925 50.32 432.319 51.02C431.712 51.72 431.409 52.735 431.409 54.065C431.409 54.5317 431.444 54.9517 431.514 55.325C431.584 55.6983 431.654 55.955 431.724 56.095L431.829 56.305L431.409 56.725C430.522 56.725 429.67 56.69 428.854 56.62C428.06 56.55 427.489 56.48 427.139 56.41L426.579 56.305C426.299 55.9083 426.159 55.2667 426.159 54.38C426.159 52.49 426.905 50.985 428.399 49.865C429.892 48.7217 432.05 48.15 434.874 48.15C437.65 48.15 439.82 48.7217 441.384 49.865C442.947 50.985 443.729 52.5483 443.729 54.555Z" fill="#141B2B"/>
<path d="M97.6281 107.096C96.7855 107.096 96.0015 106.957 95.2761 106.68C94.5615 106.392 93.9375 105.992 93.4041 105.48C92.8815 104.957 92.4708 104.355 92.1721 103.672C91.8841 102.979 91.7401 102.221 91.7401 101.4C91.7401 100.579 91.8841 99.8267 92.1721 99.144C92.4708 98.4507 92.8815 97.848 93.4041 97.336C93.9375 96.8133 94.5615 96.4133 95.2761 96.136C95.9908 95.848 96.7748 95.704 97.6281 95.704C98.4708 95.704 99.2495 95.848 99.9641 96.136C100.679 96.4133 101.297 96.808 101.82 97.32C102.353 97.832 102.764 98.4347 103.052 99.128C103.351 99.8213 103.5 100.579 103.5 101.4C103.5 102.221 103.351 102.979 103.052 103.672C102.764 104.365 102.353 104.968 101.82 105.48C101.297 105.992 100.679 106.392 99.9641 106.68C99.2495 106.957 98.4708 107.096 97.6281 107.096ZM97.6281 106.04C98.3001 106.04 98.9188 105.928 99.4841 105.704C100.06 105.469 100.556 105.144 100.972 104.728C101.399 104.301 101.729 103.811 101.964 103.256C102.199 102.691 102.316 102.072 102.316 101.4C102.316 100.728 102.199 100.115 101.964 99.56C101.729 98.9947 101.399 98.504 100.972 98.088C100.556 97.6613 100.06 97.336 99.4841 97.112C98.9188 96.8773 98.3001 96.76 97.6281 96.76C96.9561 96.76 96.3321 96.8773 95.7561 97.112C95.1801 97.336 94.6788 97.6613 94.2521 98.088C93.8361 98.504 93.5055 98.9947 93.2601 99.56C93.0255 100.115 92.9081 100.728 92.9081 101.4C92.9081 102.061 93.0255 102.675 93.2601 103.24C93.5055 103.805 93.8361 104.301 94.2521 104.728C94.6788 105.144 95.1801 105.469 95.7561 105.704C96.3321 105.928 96.9561 106.04 97.6281 106.04ZM109.574 107.08C108.742 107.08 107.995 106.899 107.334 106.536C106.683 106.163 106.171 105.656 105.798 105.016C105.424 104.365 105.238 103.624 105.238 102.792C105.238 101.949 105.424 101.208 105.798 100.568C106.171 99.928 106.683 99.4267 107.334 99.064C107.995 98.7013 108.742 98.52 109.574 98.52C110.288 98.52 110.934 98.6587 111.51 98.936C112.086 99.2133 112.539 99.6293 112.87 100.184L112.022 100.76C111.734 100.333 111.376 100.019 110.95 99.816C110.523 99.6133 110.059 99.512 109.558 99.512C108.96 99.512 108.422 99.6507 107.942 99.928C107.462 100.195 107.083 100.573 106.806 101.064C106.528 101.555 106.39 102.131 106.39 102.792C106.39 103.453 106.528 104.029 106.806 104.52C107.083 105.011 107.462 105.395 107.942 105.672C108.422 105.939 108.96 106.072 109.558 106.072C110.059 106.072 110.523 105.971 110.95 105.768C111.376 105.565 111.734 105.256 112.022 104.84L112.87 105.416C112.539 105.96 112.086 106.376 111.51 106.664C110.934 106.941 110.288 107.08 109.574 107.08ZM116.513 107V99.288L116.801 99.592H113.329V98.6H120.833V99.592H117.361L117.649 99.288V107H116.513ZM127.691 107V105.144L127.643 104.84V101.736C127.643 101.021 127.441 100.472 127.035 100.088C126.641 99.704 126.049 99.512 125.259 99.512C124.715 99.512 124.198 99.6027 123.707 99.784C123.217 99.9653 122.801 100.205 122.459 100.504L121.947 99.656C122.374 99.2933 122.886 99.016 123.483 98.824C124.081 98.6213 124.71 98.52 125.371 98.52C126.459 98.52 127.297 98.792 127.883 99.336C128.481 99.8693 128.779 100.685 128.779 101.784V107H127.691ZM124.795 107.08C124.166 107.08 123.617 106.979 123.147 106.776C122.689 106.563 122.337 106.275 122.091 105.912C121.846 105.539 121.723 105.112 121.723 104.632C121.723 104.195 121.825 103.8 122.027 103.448C122.241 103.085 122.582 102.797 123.051 102.584C123.531 102.36 124.171 102.248 124.971 102.248H127.867V103.096H125.003C124.193 103.096 123.627 103.24 123.307 103.528C122.998 103.816 122.843 104.173 122.843 104.6C122.843 105.08 123.03 105.464 123.403 105.752C123.777 106.04 124.299 106.184 124.971 106.184C125.611 106.184 126.161 106.04 126.619 105.752C127.089 105.453 127.43 105.027 127.643 104.472L127.899 105.256C127.686 105.811 127.313 106.253 126.779 106.584C126.257 106.915 125.595 107.08 124.795 107.08ZM131.804 107V98.6H135.516C136.465 98.6 137.212 98.7813 137.756 99.144C138.31 99.5067 138.588 100.04 138.588 100.744C138.588 101.427 138.326 101.955 137.804 102.328C137.281 102.691 136.593 102.872 135.74 102.872L135.964 102.536C136.966 102.536 137.702 102.723 138.172 103.096C138.641 103.469 138.876 104.008 138.876 104.712C138.876 105.437 138.609 106.003 138.076 106.408C137.553 106.803 136.737 107 135.628 107H131.804ZM132.908 106.104H135.58C136.294 106.104 136.833 105.992 137.196 105.768C137.569 105.533 137.756 105.16 137.756 104.648C137.756 104.136 137.59 103.763 137.26 103.528C136.929 103.293 136.406 103.176 135.692 103.176H132.908V106.104ZM132.908 102.328H135.436C136.086 102.328 136.582 102.205 136.924 101.96C137.276 101.715 137.452 101.357 137.452 100.888C137.452 100.419 137.276 100.067 136.924 99.832C136.582 99.5973 136.086 99.48 135.436 99.48H132.908V102.328ZM145.154 101.56C146.21 101.571 147.01 101.805 147.554 102.264C148.109 102.723 148.386 103.384 148.386 104.248C148.386 105.144 148.087 105.832 147.49 106.312C146.903 106.792 146.05 107.027 144.93 107.016L141.538 107V98.6H142.674V101.528L145.154 101.56ZM144.866 106.152C145.645 106.163 146.231 106.008 146.626 105.688C147.031 105.357 147.234 104.877 147.234 104.248C147.234 103.619 147.037 103.16 146.642 102.872C146.247 102.573 145.655 102.419 144.866 102.408L142.674 102.376V106.12L144.866 106.152ZM151.31 107V99.288L151.598 99.592H148.126V98.6H155.63V99.592H152.158L152.446 99.288V107H151.31ZM160.482 107.08C159.607 107.08 158.839 106.899 158.178 106.536C157.516 106.163 156.999 105.656 156.626 105.016C156.252 104.365 156.066 103.624 156.066 102.792C156.066 101.96 156.242 101.224 156.594 100.584C156.956 99.944 157.447 99.4427 158.066 99.08C158.695 98.7067 159.399 98.52 160.178 98.52C160.967 98.52 161.666 98.7013 162.274 99.064C162.892 99.416 163.378 99.9173 163.73 100.568C164.082 101.208 164.258 101.949 164.258 102.792C164.258 102.845 164.252 102.904 164.242 102.968C164.242 103.021 164.242 103.08 164.242 103.144H156.93V102.296H163.634L163.186 102.632C163.186 102.024 163.052 101.485 162.786 101.016C162.53 100.536 162.178 100.163 161.73 99.896C161.282 99.6293 160.764 99.496 160.178 99.496C159.602 99.496 159.084 99.6293 158.626 99.896C158.167 100.163 157.81 100.536 157.554 101.016C157.298 101.496 157.17 102.045 157.17 102.664V102.84C157.17 103.48 157.308 104.045 157.586 104.536C157.874 105.016 158.268 105.395 158.77 105.672C159.282 105.939 159.863 106.072 160.514 106.072C161.026 106.072 161.5 105.981 161.938 105.8C162.386 105.619 162.77 105.341 163.09 104.968L163.73 105.704C163.356 106.152 162.887 106.493 162.322 106.728C161.767 106.963 161.154 107.08 160.482 107.08ZM174.48 107.08C173.648 107.08 172.901 106.899 172.24 106.536C171.589 106.163 171.077 105.656 170.704 105.016C170.33 104.365 170.144 103.624 170.144 102.792C170.144 101.949 170.33 101.208 170.704 100.568C171.077 99.928 171.589 99.4267 172.24 99.064C172.901 98.7013 173.648 98.52 174.48 98.52C175.194 98.52 175.84 98.6587 176.416 98.936C176.992 99.2133 177.445 99.6293 177.776 100.184L176.928 100.76C176.64 100.333 176.282 100.019 175.856 99.816C175.429 99.6133 174.965 99.512 174.464 99.512C173.866 99.512 173.328 99.6507 172.848 99.928C172.368 100.195 171.989 100.573 171.712 101.064C171.434 101.555 171.296 102.131 171.296 102.792C171.296 103.453 171.434 104.029 171.712 104.52C171.989 105.011 172.368 105.395 172.848 105.672C173.328 105.939 173.866 106.072 174.464 106.072C174.965 106.072 175.429 105.971 175.856 105.768C176.282 105.565 176.64 105.256 176.928 104.84L177.776 105.416C177.445 105.96 176.992 106.376 176.416 106.664C175.84 106.941 175.194 107.08 174.48 107.08ZM179.975 107V98.6H183.687C184.637 98.6 185.383 98.7813 185.927 99.144C186.482 99.5067 186.759 100.04 186.759 100.744C186.759 101.427 186.498 101.955 185.975 102.328C185.453 102.691 184.765 102.872 183.911 102.872L184.135 102.536C185.138 102.536 185.874 102.723 186.343 103.096C186.813 103.469 187.047 104.008 187.047 104.712C187.047 105.437 186.781 106.003 186.247 106.408C185.725 106.803 184.909 107 183.799 107H179.975ZM181.079 106.104H183.751C184.466 106.104 185.005 105.992 185.367 105.768C185.741 105.533 185.927 105.16 185.927 104.648C185.927 104.136 185.762 103.763 185.431 103.528C185.101 103.293 184.578 103.176 183.863 103.176H181.079V106.104ZM181.079 102.328H183.607C184.258 102.328 184.754 102.205 185.095 101.96C185.447 101.715 185.623 101.357 185.623 100.888C185.623 100.419 185.447 100.067 185.095 99.832C184.754 99.5973 184.258 99.48 183.607 99.48H181.079V102.328ZM193.166 107.08C192.355 107.08 191.624 106.899 190.974 106.536C190.334 106.163 189.827 105.656 189.454 105.016C189.08 104.365 188.894 103.624 188.894 102.792C188.894 101.949 189.08 101.208 189.454 100.568C189.827 99.928 190.334 99.4267 190.974 99.064C191.614 98.7013 192.344 98.52 193.166 98.52C193.998 98.52 194.734 98.7013 195.374 99.064C196.024 99.4267 196.531 99.928 196.894 100.568C197.267 101.208 197.454 101.949 197.454 102.792C197.454 103.624 197.267 104.365 196.894 105.016C196.531 105.656 196.024 106.163 195.374 106.536C194.723 106.899 193.987 107.08 193.166 107.08ZM193.166 106.072C193.774 106.072 194.312 105.939 194.782 105.672C195.251 105.395 195.619 105.011 195.886 104.52C196.163 104.019 196.302 103.443 196.302 102.792C196.302 102.131 196.163 101.555 195.886 101.064C195.619 100.573 195.251 100.195 194.782 99.928C194.312 99.6507 193.779 99.512 193.182 99.512C192.584 99.512 192.051 99.6507 191.582 99.928C191.112 100.195 190.739 100.573 190.462 101.064C190.184 101.555 190.046 102.131 190.046 102.792C190.046 103.443 190.184 104.019 190.462 104.52C190.739 105.011 191.112 105.395 191.582 105.672C192.051 105.939 192.579 106.072 193.166 106.072ZM199.882 107V98.6H201.018V105.272L206.634 98.6H207.642V107H206.506V100.312L200.906 107H199.882ZM203.69 97.384C202.986 97.384 202.415 97.208 201.978 96.856C201.551 96.4933 201.327 95.976 201.306 95.304H202.122C202.132 95.7307 202.282 96.0667 202.57 96.312C202.858 96.5573 203.231 96.68 203.69 96.68C204.148 96.68 204.522 96.5573 204.81 96.312C205.108 96.0667 205.263 95.7307 205.274 95.304H206.09C206.079 95.976 205.855 96.4933 205.418 96.856C204.98 97.208 204.404 97.384 203.69 97.384ZM215.085 107V98.6H216.221V102.312H221.517V98.6H222.653V107H221.517V103.288H216.221V107H215.085ZM229.338 107.08C228.527 107.08 227.796 106.899 227.146 106.536C226.506 106.163 225.999 105.656 225.626 105.016C225.252 104.365 225.066 103.624 225.066 102.792C225.066 101.949 225.252 101.208 225.626 100.568C225.999 99.928 226.506 99.4267 227.146 99.064C227.786 98.7013 228.516 98.52 229.338 98.52C230.17 98.52 230.906 98.7013 231.546 99.064C232.196 99.4267 232.703 99.928 233.066 100.568C233.439 101.208 233.626 101.949 233.626 102.792C233.626 103.624 233.439 104.365 233.066 105.016C232.703 105.656 232.196 106.163 231.546 106.536C230.895 106.899 230.159 107.08 229.338 107.08ZM229.338 106.072C229.946 106.072 230.484 105.939 230.954 105.672C231.423 105.395 231.791 105.011 232.058 104.52C232.335 104.019 232.474 103.443 232.474 102.792C232.474 102.131 232.335 101.555 232.058 101.064C231.791 100.573 231.423 100.195 230.954 99.928C230.484 99.6507 229.951 99.512 229.354 99.512C228.756 99.512 228.223 99.6507 227.754 99.928C227.284 100.195 226.911 100.573 226.634 101.064C226.356 101.555 226.218 102.131 226.218 102.792C226.218 103.443 226.356 104.019 226.634 104.52C226.911 105.011 227.284 105.395 227.754 105.672C228.223 105.939 228.751 106.072 229.338 106.072ZM236.054 107V98.6H237.206L241.014 105.048H240.534L244.406 98.6H245.462V107H244.422V99.896L244.63 99.992L241.014 105.976H240.502L236.854 99.928L237.094 99.88V107H236.054ZM252.294 107.08C251.419 107.08 250.651 106.899 249.99 106.536C249.329 106.163 248.811 105.656 248.438 105.016C248.065 104.365 247.878 103.624 247.878 102.792C247.878 101.96 248.054 101.224 248.406 100.584C248.769 99.944 249.259 99.4427 249.878 99.08C250.507 98.7067 251.211 98.52 251.99 98.52C252.779 98.52 253.478 98.7013 254.086 99.064C254.705 99.416 255.19 99.9173 255.542 100.568C255.894 101.208 256.07 101.949 256.07 102.792C256.07 102.845 256.065 102.904 256.054 102.968C256.054 103.021 256.054 103.08 256.054 103.144H248.742V102.296H255.446L254.998 102.632C254.998 102.024 254.865 101.485 254.598 101.016C254.342 100.536 253.99 100.163 253.542 99.896C253.094 99.6293 252.577 99.496 251.99 99.496C251.414 99.496 250.897 99.6293 250.438 99.896C249.979 100.163 249.622 100.536 249.366 101.016C249.11 101.496 248.982 102.045 248.982 102.664V102.84C248.982 103.48 249.121 104.045 249.398 104.536C249.686 105.016 250.081 105.395 250.582 105.672C251.094 105.939 251.675 106.072 252.326 106.072C252.838 106.072 253.313 105.981 253.75 105.8C254.198 105.619 254.582 105.341 254.902 104.968L255.542 105.704C255.169 106.152 254.699 106.493 254.134 106.728C253.579 106.963 252.966 107.08 252.294 107.08ZM262.921 107.08C262.195 107.08 261.539 106.915 260.953 106.584C260.366 106.243 259.897 105.757 259.545 105.128C259.203 104.488 259.033 103.709 259.033 102.792C259.033 101.875 259.203 101.101 259.545 100.472C259.886 99.832 260.35 99.3467 260.937 99.016C261.523 98.6853 262.185 98.52 262.921 98.52C263.721 98.52 264.435 98.7013 265.065 99.064C265.705 99.416 266.206 99.9173 266.569 100.568C266.931 101.208 267.113 101.949 267.113 102.792C267.113 103.645 266.931 104.392 266.569 105.032C266.206 105.672 265.705 106.173 265.065 106.536C264.435 106.899 263.721 107.08 262.921 107.08ZM258.585 110.104V98.6H259.673V101.128L259.561 102.808L259.721 104.504V110.104H258.585ZM262.841 106.072C263.438 106.072 263.971 105.939 264.441 105.672C264.91 105.395 265.283 105.011 265.561 104.52C265.838 104.019 265.977 103.443 265.977 102.792C265.977 102.141 265.838 101.571 265.561 101.08C265.283 100.589 264.91 100.205 264.441 99.928C263.971 99.6507 263.438 99.512 262.841 99.512C262.243 99.512 261.705 99.6507 261.225 99.928C260.755 100.205 260.382 100.589 260.105 101.08C259.838 101.571 259.705 102.141 259.705 102.792C259.705 103.443 259.838 104.019 260.105 104.52C260.382 105.011 260.755 105.395 261.225 105.672C261.705 105.939 262.243 106.072 262.841 106.072ZM273.741 107V98.6H274.877V105.272L280.493 98.6H281.501V107H280.365V100.312L274.765 107H273.741ZM288.944 107V98.6H290.096L293.904 105.048H293.424L297.296 98.6H298.352V107H297.312V99.896L297.52 99.992L293.904 105.976H293.392L289.744 99.928L289.984 99.88V107H288.944ZM309.777 107V98.6H310.913V107H309.777ZM305.121 101.56C306.177 101.571 306.982 101.805 307.537 102.264C308.091 102.723 308.369 103.384 308.369 104.248C308.369 105.144 308.07 105.832 307.473 106.312C306.875 106.792 306.022 107.027 304.913 107.016L301.585 107V98.6H302.721V101.528L305.121 101.56ZM304.833 106.152C305.622 106.163 306.214 106.008 306.609 105.688C307.014 105.357 307.217 104.877 307.217 104.248C307.217 103.619 307.019 103.16 306.625 102.872C306.23 102.573 305.633 102.419 304.833 102.408L302.721 102.376V106.12L304.833 106.152ZM321.855 107.08C321.023 107.08 320.276 106.899 319.615 106.536C318.964 106.163 318.452 105.656 318.079 105.016C317.705 104.365 317.519 103.624 317.519 102.792C317.519 101.949 317.705 101.208 318.079 100.568C318.452 99.928 318.964 99.4267 319.615 99.064C320.276 98.7013 321.023 98.52 321.855 98.52C322.569 98.52 323.215 98.6587 323.791 98.936C324.367 99.2133 324.82 99.6293 325.151 100.184L324.303 100.76C324.015 100.333 323.657 100.019 323.231 99.816C322.804 99.6133 322.34 99.512 321.839 99.512C321.241 99.512 320.703 99.6507 320.223 99.928C319.743 100.195 319.364 100.573 319.087 101.064C318.809 101.555 318.671 102.131 318.671 102.792C318.671 103.453 318.809 104.029 319.087 104.52C319.364 105.011 319.743 105.395 320.223 105.672C320.703 105.939 321.241 106.072 321.839 106.072C322.34 106.072 322.804 105.971 323.231 105.768C323.657 105.565 324.015 105.256 324.303 104.84L325.151 105.416C324.82 105.96 324.367 106.376 323.791 106.664C323.215 106.941 322.569 107.08 321.855 107.08ZM327.35 107V98.6H331.062C332.012 98.6 332.758 98.7813 333.302 99.144C333.857 99.5067 334.134 100.04 334.134 100.744C334.134 101.427 333.873 101.955 333.35 102.328C332.828 102.691 332.14 102.872 331.286 102.872L331.51 102.536C332.513 102.536 333.249 102.723 333.718 103.096C334.188 103.469 334.422 104.008 334.422 104.712C334.422 105.437 334.156 106.003 333.622 106.408C333.1 106.803 332.284 107 331.174 107H327.35ZM328.454 106.104H331.126C331.841 106.104 332.38 105.992 332.742 105.768C333.116 105.533 333.302 105.16 333.302 104.648C333.302 104.136 333.137 103.763 332.806 103.528C332.476 103.293 331.953 103.176 331.238 103.176H328.454V106.104ZM328.454 102.328H330.982C331.633 102.328 332.129 102.205 332.47 101.96C332.822 101.715 332.998 101.357 332.998 100.888C332.998 100.419 332.822 100.067 332.47 99.832C332.129 99.5973 331.633 99.48 330.982 99.48H328.454V102.328ZM342.509 107V103.976L342.717 104.216H339.869C338.791 104.216 337.949 103.981 337.341 103.512C336.733 103.043 336.429 102.36 336.429 101.464C336.429 100.504 336.754 99.7893 337.405 99.32C338.055 98.84 338.925 98.6 340.013 98.6H343.549V107H342.509ZM336.365 107L338.669 103.768H339.853L337.597 107H336.365ZM342.509 103.64V99.256L342.717 99.592H340.045C339.266 99.592 338.658 99.7413 338.221 100.04C337.794 100.339 337.581 100.824 337.581 101.496C337.581 102.744 338.375 103.368 339.965 103.368H342.717L342.509 103.64ZM356.756 107L353.876 102.84L354.82 102.28L358.116 107H356.756ZM351.988 103.256V102.28H354.644V103.256H351.988ZM354.932 102.92L353.844 102.76L356.644 98.6H357.876L354.932 102.92ZM346.804 107H345.444L348.74 102.28L349.668 102.84L346.804 107ZM352.34 107H351.204V98.6H352.34V107ZM351.556 103.256H348.916V102.28H351.556V103.256ZM348.644 102.92L345.684 98.6H346.916L349.7 102.76L348.644 102.92ZM363.31 107.08C362.435 107.08 361.667 106.899 361.006 106.536C360.344 106.163 359.827 105.656 359.454 105.016C359.08 104.365 358.894 103.624 358.894 102.792C358.894 101.96 359.07 101.224 359.422 100.584C359.784 99.944 360.275 99.4427 360.894 99.08C361.523 98.7067 362.227 98.52 363.006 98.52C363.795 98.52 364.494 98.7013 365.102 99.064C365.72 99.416 366.206 99.9173 366.558 100.568C366.91 101.208 367.086 101.949 367.086 102.792C367.086 102.845 367.08 102.904 367.07 102.968C367.07 103.021 367.07 103.08 367.07 103.144H359.758V102.296H366.462L366.014 102.632C366.014 102.024 365.88 101.485 365.614 101.016C365.358 100.536 365.006 100.163 364.558 99.896C364.11 99.6293 363.592 99.496 363.006 99.496C362.43 99.496 361.912 99.6293 361.454 99.896C360.995 100.163 360.638 100.536 360.382 101.016C360.126 101.496 359.998 102.045 359.998 102.664V102.84C359.998 103.48 360.136 104.045 360.414 104.536C360.702 105.016 361.096 105.395 361.598 105.672C362.11 105.939 362.691 106.072 363.342 106.072C363.854 106.072 364.328 105.981 364.766 105.8C365.214 105.619 365.598 105.341 365.918 104.968L366.558 105.704C366.184 106.152 365.715 106.493 365.15 106.728C364.595 106.963 363.982 107.08 363.31 107.08ZM369.6 107V98.6H370.752L374.56 105.048H374.08L377.952 98.6H379.008V107H377.968V99.896L378.176 99.992L374.56 105.976H374.048L370.4 99.928L370.64 99.88V107H369.6ZM385.761 107.08C384.929 107.08 384.182 106.899 383.521 106.536C382.87 106.163 382.358 105.656 381.985 105.016C381.612 104.365 381.425 103.624 381.425 102.792C381.425 101.949 381.612 101.208 381.985 100.568C382.358 99.928 382.87 99.4267 383.521 99.064C384.182 98.7013 384.929 98.52 385.761 98.52C386.476 98.52 387.121 98.6587 387.697 98.936C388.273 99.2133 388.726 99.6293 389.057 100.184L388.209 100.76C387.921 100.333 387.564 100.019 387.137 99.816C386.71 99.6133 386.246 99.512 385.745 99.512C385.148 99.512 384.609 99.6507 384.129 99.928C383.649 100.195 383.27 100.573 382.993 101.064C382.716 101.555 382.577 102.131 382.577 102.792C382.577 103.453 382.716 104.029 382.993 104.52C383.27 105.011 383.649 105.395 384.129 105.672C384.609 105.939 385.148 106.072 385.745 106.072C386.246 106.072 386.71 105.971 387.137 105.768C387.564 105.565 387.921 105.256 388.209 104.84L389.057 105.416C388.726 105.96 388.273 106.376 387.697 106.664C387.121 106.941 386.476 107.08 385.761 107.08ZM396.399 107V103.976L396.607 104.216H393.759C392.682 104.216 391.839 103.981 391.231 103.512C390.623 103.043 390.319 102.36 390.319 101.464C390.319 100.504 390.645 99.7893 391.295 99.32C391.946 98.84 392.815 98.6 393.903 98.6H397.439V107H396.399ZM390.255 107L392.559 103.768H393.743L391.487 107H390.255ZM396.399 103.64V99.256L396.607 99.592H393.935C393.157 99.592 392.549 99.7413 392.111 100.04C391.685 100.339 391.471 100.824 391.471 101.496C391.471 102.744 392.266 103.368 393.855 103.368H396.607L396.399 103.64ZM408.386 107.08C407.554 107.08 406.807 106.899 406.146 106.536C405.495 106.163 404.983 105.656 404.61 105.016C404.237 104.365 404.05 103.624 404.05 102.792C404.05 101.949 404.237 101.208 404.61 100.568C404.983 99.928 405.495 99.4267 406.146 99.064C406.807 98.7013 407.554 98.52 408.386 98.52C409.101 98.52 409.746 98.6587 410.322 98.936C410.898 99.2133 411.351 99.6293 411.682 100.184L410.834 100.76C410.546 100.333 410.189 100.019 409.762 99.816C409.335 99.6133 408.871 99.512 408.37 99.512C407.773 99.512 407.234 99.6507 406.754 99.928C406.274 100.195 405.895 100.573 405.618 101.064C405.341 101.555 405.202 102.131 405.202 102.792C405.202 103.453 405.341 104.029 405.618 104.52C405.895 105.011 406.274 105.395 406.754 105.672C407.234 105.939 407.773 106.072 408.37 106.072C408.871 106.072 409.335 105.971 409.762 105.768C410.189 105.565 410.546 105.256 410.834 104.84L411.682 105.416C411.351 105.96 410.898 106.376 410.322 106.664C409.746 106.941 409.101 107.08 408.386 107.08ZM418.069 107V98.6H421.781C422.73 98.6 423.477 98.7813 424.021 99.144C424.576 99.5067 424.853 100.04 424.853 100.744C424.853 101.427 424.592 101.955 424.069 102.328C423.546 102.691 422.858 102.872 422.005 102.872L422.229 102.536C423.232 102.536 423.968 102.723 424.437 103.096C424.906 103.469 425.141 104.008 425.141 104.712C425.141 105.437 424.874 106.003 424.341 106.408C423.818 106.803 423.002 107 421.893 107H418.069ZM419.173 106.104H421.845C422.56 106.104 423.098 105.992 423.461 105.768C423.834 105.533 424.021 105.16 424.021 104.648C424.021 104.136 423.856 103.763 423.525 103.528C423.194 103.293 422.672 103.176 421.957 103.176H419.173V106.104ZM419.173 102.328H421.701C422.352 102.328 422.848 102.205 423.189 101.96C423.541 101.715 423.717 101.357 423.717 100.888C423.717 100.419 423.541 100.067 423.189 99.832C422.848 99.5973 422.352 99.48 421.701 99.48H419.173V102.328ZM433.02 107V105.144L432.972 104.84V101.736C432.972 101.021 432.769 100.472 432.364 100.088C431.969 99.704 431.377 99.512 430.588 99.512C430.044 99.512 429.526 99.6027 429.036 99.784C428.545 99.9653 428.129 100.205 427.788 100.504L427.276 99.656C427.702 99.2933 428.214 99.016 428.812 98.824C429.409 98.6213 430.038 98.52 430.7 98.52C431.788 98.52 432.625 98.792 433.212 99.336C433.809 99.8693 434.108 100.685 434.108 101.784V107H433.02ZM430.124 107.08C429.494 107.08 428.945 106.979 428.476 106.776C428.017 106.563 427.665 106.275 427.42 105.912C427.174 105.539 427.052 105.112 427.052 104.632C427.052 104.195 427.153 103.8 427.356 103.448C427.569 103.085 427.91 102.797 428.38 102.584C428.86 102.36 429.5 102.248 430.299 102.248H433.196V103.096H430.332C429.521 103.096 428.956 103.24 428.636 103.528C428.326 103.816 428.172 104.173 428.172 104.6C428.172 105.08 428.358 105.464 428.732 105.752C429.105 106.04 429.628 106.184 430.299 106.184C430.94 106.184 431.489 106.04 431.948 105.752C432.417 105.453 432.758 105.027 432.972 104.472L433.228 105.256C433.014 105.811 432.641 106.253 432.108 106.584C431.585 106.915 430.924 107.08 430.124 107.08ZM437.132 107V98.6H438.284L442.092 105.048H441.612L445.484 98.6H446.54V107H445.5V99.896L445.708 99.992L442.092 105.976H441.58L437.932 99.928L438.172 99.88V107H437.132ZM449.772 107V98.6H450.908V105.272L456.524 98.6H457.532V107H456.396V100.312L450.796 107H449.772ZM191.264 127V118.6H194.976C195.926 118.6 196.672 118.781 197.216 119.144C197.771 119.507 198.048 120.04 198.048 120.744C198.048 121.427 197.787 121.955 197.264 122.328C196.742 122.691 196.054 122.872 195.2 122.872L195.424 122.536C196.427 122.536 197.163 122.723 197.632 123.096C198.102 123.469 198.336 124.008 198.336 124.712C198.336 125.437 198.07 126.003 197.536 126.408C197.014 126.803 196.198 127 195.088 127H191.264ZM192.368 126.104H195.04C195.755 126.104 196.294 125.992 196.656 125.768C197.03 125.533 197.216 125.16 197.216 124.648C197.216 124.136 197.051 123.763 196.72 123.528C196.39 123.293 195.867 123.176 195.152 123.176H192.368V126.104ZM192.368 122.328H194.896C195.547 122.328 196.043 122.205 196.384 121.96C196.736 121.715 196.912 121.357 196.912 120.888C196.912 120.419 196.736 120.067 196.384 119.832C196.043 119.597 195.547 119.48 194.896 119.48H192.368V122.328ZM208.962 127.096C208.28 127.096 207.672 126.984 207.138 126.76C206.616 126.536 206.168 126.195 205.794 125.736C205.421 125.277 205.138 124.712 204.946 124.04C204.754 123.357 204.658 122.568 204.658 121.672C204.658 120.872 204.733 120.173 204.882 119.576C205.032 118.968 205.24 118.445 205.506 118.008C205.773 117.571 206.082 117.203 206.434 116.904C206.797 116.595 207.186 116.349 207.602 116.168C208.029 115.976 208.466 115.832 208.914 115.736L212.69 114.856L212.882 115.912L209.33 116.712C209.106 116.765 208.834 116.84 208.514 116.936C208.205 117.032 207.885 117.176 207.554 117.368C207.234 117.56 206.936 117.827 206.658 118.168C206.381 118.509 206.157 118.952 205.986 119.496C205.826 120.029 205.746 120.696 205.746 121.496C205.746 121.667 205.752 121.805 205.762 121.912C205.773 122.008 205.784 122.115 205.794 122.232C205.816 122.339 205.832 122.499 205.842 122.712L205.346 122.296C205.464 121.645 205.704 121.08 206.066 120.6C206.429 120.109 206.882 119.731 207.426 119.464C207.981 119.187 208.594 119.048 209.266 119.048C210.045 119.048 210.738 119.219 211.346 119.56C211.954 119.891 212.429 120.355 212.77 120.952C213.122 121.549 213.298 122.243 213.298 123.032C213.298 123.811 213.117 124.509 212.754 125.128C212.402 125.747 211.901 126.232 211.25 126.584C210.6 126.925 209.837 127.096 208.962 127.096ZM209.09 126.152C209.688 126.152 210.216 126.019 210.674 125.752C211.133 125.475 211.49 125.101 211.746 124.632C212.013 124.163 212.146 123.635 212.146 123.048C212.146 122.472 212.013 121.96 211.746 121.512C211.49 121.064 211.133 120.712 210.674 120.456C210.216 120.189 209.682 120.056 209.074 120.056C208.477 120.056 207.949 120.184 207.49 120.44C207.032 120.685 206.669 121.032 206.402 121.48C206.146 121.928 206.018 122.445 206.018 123.032C206.018 123.619 206.146 124.147 206.402 124.616C206.669 125.085 207.032 125.459 207.49 125.736C207.96 126.013 208.493 126.152 209.09 126.152ZM214.15 126.984L214.23 126.008C214.305 126.019 214.374 126.035 214.438 126.056C214.513 126.067 214.577 126.072 214.63 126.072C214.972 126.072 215.244 125.944 215.446 125.688C215.66 125.432 215.82 125.091 215.926 124.664C216.033 124.237 216.108 123.757 216.15 123.224C216.193 122.68 216.23 122.136 216.262 121.592L216.406 118.6H222.566V127H221.43V119.256L221.718 119.592H217.142L217.414 119.24L217.286 121.672C217.254 122.397 217.196 123.091 217.11 123.752C217.036 124.413 216.913 124.995 216.742 125.496C216.582 125.997 216.358 126.392 216.07 126.68C215.782 126.957 215.414 127.096 214.966 127.096C214.838 127.096 214.705 127.085 214.566 127.064C214.438 127.043 214.3 127.016 214.15 126.984ZM225.796 127V118.6H226.932V125.272L232.548 118.6H233.556V127H232.42V120.312L226.82 127H225.796ZM246.779 127L243.899 122.84L244.843 122.28L248.139 127H246.779ZM242.011 123.256V122.28H244.667V123.256H242.011ZM244.955 122.92L243.867 122.76L246.667 118.6H247.899L244.955 122.92ZM236.827 127H235.467L238.763 122.28L239.691 122.84L236.827 127ZM242.363 127H241.227V118.6H242.363V127ZM241.579 123.256H238.939V122.28H241.579V123.256ZM238.667 122.92L235.707 118.6H236.939L239.723 122.76L238.667 122.92ZM255.09 127V125.144L255.042 124.84V121.736C255.042 121.021 254.839 120.472 254.434 120.088C254.039 119.704 253.447 119.512 252.658 119.512C252.114 119.512 251.596 119.603 251.106 119.784C250.615 119.965 250.199 120.205 249.858 120.504L249.346 119.656C249.772 119.293 250.284 119.016 250.882 118.824C251.479 118.621 252.108 118.52 252.77 118.52C253.858 118.52 254.695 118.792 255.282 119.336C255.879 119.869 256.178 120.685 256.178 121.784V127H255.09ZM252.194 127.08C251.564 127.08 251.015 126.979 250.546 126.776C250.087 126.563 249.735 126.275 249.49 125.912C249.244 125.539 249.122 125.112 249.122 124.632C249.122 124.195 249.223 123.8 249.426 123.448C249.639 123.085 249.98 122.797 250.45 122.584C250.93 122.36 251.57 122.248 252.37 122.248H255.266V123.096H252.402C251.591 123.096 251.026 123.24 250.706 123.528C250.396 123.816 250.242 124.173 250.242 124.6C250.242 125.08 250.428 125.464 250.802 125.752C251.175 126.04 251.698 126.184 252.37 126.184C253.01 126.184 253.559 126.04 254.018 125.752C254.487 125.453 254.828 125.027 255.042 124.472L255.298 125.256C255.084 125.811 254.711 126.253 254.178 126.584C253.655 126.915 252.994 127.08 252.194 127.08ZM259.202 127V118.6H260.338V125.272L265.954 118.6H266.962V127H265.826V120.312L260.226 127H259.202ZM263.01 117.384C262.306 117.384 261.735 117.208 261.298 116.856C260.871 116.493 260.647 115.976 260.626 115.304H261.442C261.453 115.731 261.602 116.067 261.89 116.312C262.178 116.557 262.551 116.68 263.01 116.68C263.469 116.68 263.842 116.557 264.13 116.312C264.429 116.067 264.583 115.731 264.594 115.304H265.41C265.399 115.976 265.175 116.493 264.738 116.856C264.301 117.208 263.725 117.384 263.01 117.384ZM275.738 126.008L275.482 126.312V118.6H276.618V126.312L276.314 126.008H281.002L280.698 126.312V118.6H281.834V127H270.218V118.6H271.354V126.312L271.066 126.008H275.738ZM288.661 127.08C287.787 127.08 287.019 126.899 286.357 126.536C285.696 126.163 285.179 125.656 284.805 125.016C284.432 124.365 284.245 123.624 284.245 122.792C284.245 121.96 284.421 121.224 284.773 120.584C285.136 119.944 285.627 119.443 286.245 119.08C286.875 118.707 287.579 118.52 288.357 118.52C289.147 118.52 289.845 118.701 290.453 119.064C291.072 119.416 291.557 119.917 291.909 120.568C292.261 121.208 292.437 121.949 292.437 122.792C292.437 122.845 292.432 122.904 292.421 122.968C292.421 123.021 292.421 123.08 292.421 123.144H285.109V122.296H291.813L291.365 122.632C291.365 122.024 291.232 121.485 290.965 121.016C290.709 120.536 290.357 120.163 289.909 119.896C289.461 119.629 288.944 119.496 288.357 119.496C287.781 119.496 287.264 119.629 286.805 119.896C286.347 120.163 285.989 120.536 285.733 121.016C285.477 121.496 285.349 122.045 285.349 122.664V122.84C285.349 123.48 285.488 124.045 285.765 124.536C286.053 125.016 286.448 125.395 286.949 125.672C287.461 125.939 288.043 126.072 288.693 126.072C289.205 126.072 289.68 125.981 290.117 125.8C290.565 125.619 290.949 125.341 291.269 124.968L291.909 125.704C291.536 126.152 291.067 126.493 290.501 126.728C289.947 126.963 289.333 127.08 288.661 127.08ZM298.552 127.08C297.677 127.08 296.909 126.899 296.248 126.536C295.587 126.163 295.069 125.656 294.696 125.016C294.323 124.365 294.136 123.624 294.136 122.792C294.136 121.96 294.312 121.224 294.664 120.584C295.027 119.944 295.517 119.443 296.136 119.08C296.765 118.707 297.469 118.52 298.248 118.52C299.037 118.52 299.736 118.701 300.344 119.064C300.963 119.416 301.448 119.917 301.8 120.568C302.152 121.208 302.328 121.949 302.328 122.792C302.328 122.845 302.323 122.904 302.312 122.968C302.312 123.021 302.312 123.08 302.312 123.144H295V122.296H301.704L301.256 122.632C301.256 122.024 301.123 121.485 300.856 121.016C300.6 120.536 300.248 120.163 299.8 119.896C299.352 119.629 298.835 119.496 298.248 119.496C297.672 119.496 297.155 119.629 296.696 119.896C296.237 120.163 295.88 120.536 295.624 121.016C295.368 121.496 295.24 122.045 295.24 122.664V122.84C295.24 123.48 295.379 124.045 295.656 124.536C295.944 125.016 296.339 125.395 296.84 125.672C297.352 125.939 297.933 126.072 298.584 126.072C299.096 126.072 299.571 125.981 300.008 125.8C300.456 125.619 300.84 125.341 301.16 124.968L301.8 125.704C301.427 126.152 300.957 126.493 300.392 126.728C299.837 126.963 299.224 127.08 298.552 127.08ZM309.03 127V118.6H312.742C313.691 118.6 314.438 118.781 314.982 119.144C315.537 119.507 315.814 120.04 315.814 120.744C315.814 121.427 315.553 121.955 315.03 122.328C314.507 122.691 313.819 122.872 312.966 122.872L313.19 122.536C314.193 122.536 314.929 122.723 315.398 123.096C315.867 123.469 316.102 124.008 316.102 124.712C316.102 125.437 315.835 126.003 315.302 126.408C314.779 126.803 313.963 127 312.854 127H309.03ZM310.134 126.104H312.806C313.521 126.104 314.059 125.992 314.422 125.768C314.795 125.533 314.982 125.16 314.982 124.648C314.982 124.136 314.817 123.763 314.486 123.528C314.155 123.293 313.633 123.176 312.918 123.176H310.134V126.104ZM310.134 122.328H312.662C313.313 122.328 313.809 122.205 314.15 121.96C314.502 121.715 314.678 121.357 314.678 120.888C314.678 120.419 314.502 120.067 314.15 119.832C313.809 119.597 313.313 119.48 312.662 119.48H310.134V122.328ZM323.1 127.08C322.375 127.08 321.719 126.915 321.132 126.584C320.546 126.243 320.076 125.757 319.724 125.128C319.383 124.488 319.212 123.709 319.212 122.792C319.212 121.875 319.383 121.101 319.724 120.472C320.066 119.832 320.53 119.347 321.116 119.016C321.703 118.685 322.364 118.52 323.1 118.52C323.9 118.52 324.615 118.701 325.244 119.064C325.884 119.416 326.386 119.917 326.748 120.568C327.111 121.208 327.292 121.949 327.292 122.792C327.292 123.645 327.111 124.392 326.748 125.032C326.386 125.672 325.884 126.173 325.244 126.536C324.615 126.899 323.9 127.08 323.1 127.08ZM318.764 130.104V118.6H319.852V121.128L319.74 122.808L319.9 124.504V130.104H318.764ZM323.02 126.072C323.618 126.072 324.151 125.939 324.62 125.672C325.09 125.395 325.463 125.011 325.74 124.52C326.018 124.019 326.156 123.443 326.156 122.792C326.156 122.141 326.018 121.571 325.74 121.08C325.463 120.589 325.09 120.205 324.62 119.928C324.151 119.651 323.618 119.512 323.02 119.512C322.423 119.512 321.884 119.651 321.404 119.928C320.935 120.205 320.562 120.589 320.284 121.08C320.018 121.571 319.884 122.141 319.884 122.792C319.884 123.443 320.018 124.019 320.284 124.52C320.562 125.011 320.935 125.395 321.404 125.672C321.884 125.939 322.423 126.072 323.02 126.072ZM333.333 127.08C332.459 127.08 331.691 126.899 331.029 126.536C330.368 126.163 329.851 125.656 329.477 125.016C329.104 124.365 328.917 123.624 328.917 122.792C328.917 121.96 329.093 121.224 329.445 120.584C329.808 119.944 330.299 119.443 330.917 119.08C331.547 118.707 332.251 118.52 333.029 118.52C333.819 118.52 334.517 118.701 335.125 119.064C335.744 119.416 336.229 119.917 336.581 120.568C336.933 121.208 337.109 121.949 337.109 122.792C337.109 122.845 337.104 122.904 337.093 122.968C337.093 123.021 337.093 123.08 337.093 123.144H329.781V122.296H336.485L336.037 122.632C336.037 122.024 335.904 121.485 335.637 121.016C335.381 120.536 335.029 120.163 334.581 119.896C334.133 119.629 333.616 119.496 333.029 119.496C332.453 119.496 331.936 119.629 331.477 119.896C331.019 120.163 330.661 120.536 330.405 121.016C330.149 121.496 330.021 122.045 330.021 122.664V122.84C330.021 123.48 330.16 124.045 330.437 124.536C330.725 125.016 331.12 125.395 331.621 125.672C332.133 125.939 332.715 126.072 333.365 126.072C333.877 126.072 334.352 125.981 334.789 125.8C335.237 125.619 335.621 125.341 335.941 124.968L336.581 125.704C336.208 126.152 335.739 126.493 335.173 126.728C334.619 126.963 334.005 127.08 333.333 127.08ZM339.624 127V118.6H340.776L344.584 125.048H344.104L347.976 118.6H349.032V127H347.992V119.896L348.2 119.992L344.584 125.976H344.072L340.424 119.928L340.664 119.88V127H339.624ZM357.688 127V123.976L357.896 124.216H355.048C353.971 124.216 353.128 123.981 352.52 123.512C351.912 123.043 351.608 122.36 351.608 121.464C351.608 120.504 351.934 119.789 352.584 119.32C353.235 118.84 354.104 118.6 355.192 118.6H358.728V127H357.688ZM351.544 127L353.848 123.768H355.032L352.776 127H351.544ZM357.688 123.64V119.256L357.896 119.592H355.224C354.446 119.592 353.838 119.741 353.4 120.04C352.974 120.339 352.76 120.824 352.76 121.496C352.76 122.744 353.555 123.368 355.144 123.368H357.896L357.688 123.64Z" fill="#141B2B"/>
<path d="M76.744 167V155.8H78.328V164.44L84.952 155.8H86.424V167H84.856V158.376L78.216 167H76.744ZM89.6599 167V158.52H91.2439L94.8919 164.792H94.2519L97.9959 158.52H99.4359V167H98.0439V160.248L98.2999 160.392L94.8759 166.04H94.2039L90.7639 160.28L91.0679 160.216V167H89.6599ZM107.85 167V164.024L108.09 164.312H105.386C104.255 164.312 103.37 164.072 102.73 163.592C102.1 163.112 101.786 162.413 101.786 161.496C101.786 160.515 102.122 159.773 102.794 159.272C103.476 158.771 104.383 158.52 105.514 158.52H109.226V167H107.85ZM101.706 167L104.01 163.752H105.594L103.354 167H101.706ZM107.85 163.544V159.432L108.09 159.864H105.562C104.858 159.864 104.314 159.997 103.93 160.264C103.546 160.52 103.354 160.947 103.354 161.544C103.354 162.653 104.068 163.208 105.498 163.208H108.09L107.85 163.544Z" fill="#141B2B"/>
<rect x="50.5" y="179.5" width="449" height="49" rx="24.5" fill="white"/>
<path d="M77.016 210V198.8H81.528C82.68 198.8 83.5867 199.04 84.248 199.52C84.92 200 85.256 200.709 85.256 201.648C85.256 202.576 84.9307 203.275 84.28 203.744C83.64 204.213 82.8027 204.448 81.768 204.448L82.04 204.128C83.288 204.128 84.232 204.373 84.872 204.864C85.512 205.355 85.832 206.075 85.832 207.024C85.832 207.973 85.5013 208.709 84.84 209.232C84.1787 209.744 83.176 210 81.832 210H77.016ZM77.832 209.312H81.848C82.8827 209.312 83.6667 209.125 84.2 208.752C84.744 208.368 85.016 207.776 85.016 206.976C85.016 206.165 84.744 205.579 84.2 205.216C83.6667 204.843 82.8827 204.656 81.848 204.656H77.832V209.312ZM77.832 203.984H81.512C82.44 203.984 83.1547 203.797 83.656 203.424C84.168 203.04 84.424 202.48 84.424 201.744C84.424 200.997 84.168 200.437 83.656 200.064C83.1547 199.68 82.44 199.488 81.512 199.488H77.832V203.984ZM93.944 210V208.096L93.912 207.808V204.672C93.912 203.893 93.6987 203.301 93.272 202.896C92.856 202.491 92.2427 202.288 91.432 202.288C90.856 202.288 90.3173 202.389 89.816 202.592C89.3253 202.784 88.904 203.035 88.552 203.344L88.152 202.768C88.568 202.395 89.0693 202.107 89.656 201.904C90.2427 201.691 90.856 201.584 91.496 201.584C92.5307 201.584 93.3253 201.845 93.88 202.368C94.4347 202.891 94.712 203.669 94.712 204.704V210H93.944ZM90.936 210.064C90.3173 210.064 89.7787 209.968 89.32 209.776C88.872 209.573 88.5253 209.291 88.28 208.928C88.0453 208.565 87.928 208.149 87.928 207.68C87.928 207.253 88.024 206.869 88.216 206.528C88.4187 206.176 88.7493 205.893 89.208 205.68C89.6667 205.456 90.28 205.344 91.048 205.344H94.12V205.968H91.064C90.2 205.968 89.592 206.128 89.24 206.448C88.8987 206.768 88.728 207.168 88.728 207.648C88.728 208.181 88.9307 208.608 89.336 208.928C89.7413 209.248 90.312 209.408 91.048 209.408C91.752 209.408 92.344 209.248 92.824 208.928C93.3147 208.608 93.6773 208.144 93.912 207.536L94.136 208.08C93.912 208.688 93.528 209.173 92.984 209.536C92.4507 209.888 91.768 210.064 90.936 210.064ZM101.338 210.064C100.528 210.064 99.8024 209.883 99.1624 209.52C98.533 209.157 98.0317 208.656 97.6584 208.016C97.2957 207.376 97.1144 206.645 97.1144 205.824C97.1144 204.992 97.2957 204.256 97.6584 203.616C98.0317 202.976 98.533 202.48 99.1624 202.128C99.8024 201.765 100.528 201.584 101.338 201.584C102.01 201.584 102.618 201.712 103.162 201.968C103.717 202.224 104.165 202.608 104.506 203.12L103.914 203.552C103.616 203.125 103.242 202.811 102.794 202.608C102.346 202.405 101.861 202.304 101.338 202.304C100.688 202.304 100.101 202.453 99.5784 202.752C99.0664 203.04 98.661 203.451 98.3624 203.984C98.0744 204.507 97.9304 205.12 97.9304 205.824C97.9304 206.528 98.0744 207.147 98.3624 207.68C98.661 208.203 99.0664 208.613 99.5784 208.912C100.101 209.2 100.688 209.344 101.338 209.344C101.861 209.344 102.346 209.243 102.794 209.04C103.242 208.837 103.616 208.523 103.914 208.096L104.506 208.528C104.165 209.04 103.717 209.424 103.162 209.68C102.618 209.936 102.01 210.064 101.338 210.064ZM106.869 210V201.648H107.669V208.768L113.621 201.648H114.325V210H113.525V202.88L107.573 210H106.869ZM116.127 209.968L116.207 209.28C116.271 209.291 116.335 209.307 116.399 209.328C116.474 209.339 116.538 209.344 116.591 209.344C116.954 209.344 117.242 209.211 117.455 208.944C117.668 208.667 117.828 208.299 117.935 207.84C118.052 207.381 118.132 206.864 118.175 206.288C118.228 205.712 118.271 205.125 118.303 204.528L118.447 201.648H124.303V210H123.503V202.112L123.727 202.368H118.959L119.167 202.096L119.039 204.592C118.996 205.317 118.938 206.011 118.863 206.672C118.788 207.333 118.676 207.92 118.527 208.432C118.378 208.944 118.164 209.349 117.887 209.648C117.61 209.936 117.252 210.08 116.815 210.08C116.708 210.08 116.596 210.069 116.479 210.048C116.372 210.027 116.255 210 116.127 209.968ZM127.759 210V201.648H128.559V208.768L134.511 201.648H135.215V210H134.415V202.88L128.463 210H127.759ZM138.666 210V201.648H139.466V208.768L145.418 201.648H146.122V210H145.322V202.88L139.37 210H138.666ZM142.362 200.368C141.711 200.368 141.172 200.197 140.746 199.856C140.33 199.504 140.111 199.019 140.09 198.4H140.682C140.703 198.837 140.868 199.184 141.178 199.44C141.498 199.696 141.892 199.824 142.362 199.824C142.831 199.824 143.22 199.696 143.53 199.44C143.85 199.184 144.015 198.837 144.026 198.4H144.634C144.623 199.019 144.404 199.504 143.978 199.856C143.562 200.197 143.023 200.368 142.362 200.368Z" fill="#CCCCCC"/>
<rect x="50.5" y="179.5" width="449" height="49" rx="24.5" stroke="#CCCCCC"/>
<path d="M79.032 265V254.776L79.432 255.192H75.208V253.8H84.44V255.192H80.216L80.6 254.776V265H79.032ZM89.0296 265.096C88.123 265.096 87.323 264.909 86.6296 264.536C85.947 264.163 85.4136 263.651 85.0296 263C84.6563 262.349 84.4696 261.603 84.4696 260.76C84.4696 259.917 84.651 259.171 85.0136 258.52C85.387 257.869 85.8936 257.363 86.5336 257C87.1843 256.627 87.915 256.44 88.7256 256.44C89.547 256.44 90.2723 256.621 90.9016 256.984C91.531 257.347 92.0216 257.859 92.3736 258.52C92.7363 259.171 92.9176 259.933 92.9176 260.808C92.9176 260.872 92.9123 260.947 92.9016 261.032C92.9016 261.117 92.8963 261.197 92.8856 261.272H85.6696V260.168H92.0856L91.4616 260.552C91.4723 260.008 91.3603 259.523 91.1256 259.096C90.891 258.669 90.5656 258.339 90.1496 258.104C89.7443 257.859 89.2696 257.736 88.7256 257.736C88.1923 257.736 87.7176 257.859 87.3016 258.104C86.8856 258.339 86.5603 258.675 86.3256 259.112C86.091 259.539 85.9736 260.029 85.9736 260.584V260.84C85.9736 261.405 86.1016 261.912 86.3576 262.36C86.6243 262.797 86.9923 263.139 87.4616 263.384C87.931 263.629 88.4696 263.752 89.0776 263.752C89.579 263.752 90.0323 263.667 90.4376 263.496C90.8536 263.325 91.2163 263.069 91.5256 262.728L92.3736 263.72C91.9896 264.168 91.5096 264.509 90.9336 264.744C90.3683 264.979 89.7336 265.096 89.0296 265.096ZM93.7519 264.984L93.8479 263.688C93.9225 263.699 93.9919 263.709 94.0559 263.72C94.1199 263.731 94.1785 263.736 94.2319 263.736C94.5732 263.736 94.8399 263.619 95.0319 263.384C95.2345 263.149 95.3839 262.84 95.4799 262.456C95.5759 262.061 95.6452 261.619 95.6879 261.128C95.7305 260.637 95.7625 260.147 95.7839 259.656L95.9279 256.52H102.44V265H100.904V257.416L101.272 257.864H96.9199L97.2719 257.4L97.1599 259.752C97.1279 260.499 97.0692 261.197 96.9839 261.848C96.8985 262.499 96.7652 263.069 96.5839 263.56C96.4132 264.051 96.1732 264.435 95.8639 264.712C95.5652 264.989 95.1759 265.128 94.6959 265.128C94.5572 265.128 94.4079 265.112 94.2479 265.08C94.0985 265.059 93.9332 265.027 93.7519 264.984ZM109.186 265.096C108.279 265.096 107.479 264.909 106.786 264.536C106.103 264.163 105.57 263.651 105.186 263C104.813 262.349 104.626 261.603 104.626 260.76C104.626 259.917 104.807 259.171 105.17 258.52C105.543 257.869 106.05 257.363 106.69 257C107.341 256.627 108.071 256.44 108.882 256.44C109.703 256.44 110.429 256.621 111.058 256.984C111.687 257.347 112.178 257.859 112.53 258.52C112.893 259.171 113.074 259.933 113.074 260.808C113.074 260.872 113.069 260.947 113.058 261.032C113.058 261.117 113.053 261.197 113.042 261.272H105.826V260.168H112.242L111.618 260.552C111.629 260.008 111.517 259.523 111.282 259.096C111.047 258.669 110.722 258.339 110.306 258.104C109.901 257.859 109.426 257.736 108.882 257.736C108.349 257.736 107.874 257.859 107.458 258.104C107.042 258.339 106.717 258.675 106.482 259.112C106.247 259.539 106.13 260.029 106.13 260.584V260.84C106.13 261.405 106.258 261.912 106.514 262.36C106.781 262.797 107.149 263.139 107.618 263.384C108.087 263.629 108.626 263.752 109.234 263.752C109.735 263.752 110.189 263.667 110.594 263.496C111.01 263.325 111.373 263.069 111.682 262.728L112.53 263.72C112.146 264.168 111.666 264.509 111.09 264.744C110.525 264.979 109.89 265.096 109.186 265.096ZM120.513 265.128C120.502 265.128 120.465 265.128 120.401 265.128C120.347 265.128 120.294 265.128 120.241 265.128C120.187 265.128 120.155 265.128 120.145 265.128C118.406 265.107 117.057 264.723 116.097 263.976C115.137 263.219 114.657 262.141 114.657 260.744C114.657 259.357 115.137 258.296 116.097 257.56C117.067 256.813 118.433 256.435 120.193 256.424C120.214 256.424 120.246 256.424 120.289 256.424C120.342 256.424 120.39 256.424 120.433 256.424C120.486 256.424 120.518 256.424 120.529 256.424C122.31 256.424 123.691 256.797 124.673 257.544C125.665 258.291 126.161 259.357 126.161 260.744C126.161 262.152 125.665 263.235 124.673 263.992C123.681 264.749 122.294 265.128 120.513 265.128ZM120.481 263.784C121.409 263.784 122.177 263.667 122.785 263.432C123.403 263.197 123.867 262.856 124.177 262.408C124.486 261.96 124.641 261.405 124.641 260.744C124.641 260.093 124.486 259.549 124.177 259.112C123.867 258.675 123.403 258.344 122.785 258.12C122.177 257.896 121.409 257.784 120.481 257.784C120.459 257.784 120.417 257.784 120.353 257.784C120.289 257.784 120.251 257.784 120.241 257.784C119.334 257.784 118.577 257.901 117.969 258.136C117.371 258.36 116.923 258.691 116.625 259.128C116.326 259.565 116.177 260.104 116.177 260.744C116.177 261.395 116.326 261.944 116.625 262.392C116.934 262.84 117.387 263.181 117.985 263.416C118.593 263.651 119.345 263.773 120.241 263.784C120.262 263.784 120.299 263.784 120.353 263.784C120.417 263.784 120.459 263.784 120.481 263.784ZM119.649 268.104V253.128H121.153V268.104H119.649ZM131.964 265.096C131.11 265.096 130.353 264.909 129.692 264.536C129.03 264.163 128.508 263.651 128.124 263C127.74 262.339 127.548 261.592 127.548 260.76C127.548 259.917 127.74 259.171 128.124 258.52C128.508 257.869 129.03 257.363 129.692 257C130.353 256.627 131.11 256.44 131.964 256.44C132.806 256.44 133.558 256.627 134.22 257C134.892 257.363 135.414 257.869 135.788 258.52C136.172 259.16 136.364 259.907 136.364 260.76C136.364 261.603 136.172 262.349 135.788 263C135.414 263.651 134.892 264.163 134.22 264.536C133.558 264.909 132.806 265.096 131.964 265.096ZM131.964 263.752C132.508 263.752 132.993 263.629 133.42 263.384C133.857 263.139 134.198 262.792 134.444 262.344C134.689 261.885 134.812 261.357 134.812 260.76C134.812 260.152 134.689 259.629 134.444 259.192C134.198 258.744 133.857 258.397 133.42 258.152C132.993 257.907 132.508 257.784 131.964 257.784C131.42 257.784 130.934 257.907 130.508 258.152C130.081 258.397 129.74 258.744 129.484 259.192C129.228 259.629 129.1 260.152 129.1 260.76C129.1 261.357 129.228 261.885 129.484 262.344C129.74 262.792 130.081 263.139 130.508 263.384C130.934 263.629 131.42 263.752 131.964 263.752ZM138.582 265V256.52H140.118V260.12H144.95V256.52H146.486V265H144.95V261.448H140.118V265H138.582Z" fill="#141B2B"/>
<rect x="50.5" y="277.5" width="449" height="49" rx="24.5" fill="white"/>
<path d="M79.192 305.712V299.088H79.912V305.712H79.192ZM76.152 302.752V302.064H82.952V302.752H76.152ZM86.8171 308L91.7451 297.184L92.0331 297.536H84.8811L85.2971 297.152V299.68H84.4971V296.8H92.5291V297.376L87.7131 308H86.8171ZM100.975 311.104C100.389 310.133 99.9354 309.013 99.6154 307.744C99.306 306.475 99.1514 305.099 99.1514 303.616C99.1514 302.133 99.306 300.752 99.6154 299.472C99.9354 298.181 100.389 297.067 100.975 296.128H101.743C101.114 297.195 100.655 298.347 100.367 299.584C100.079 300.821 99.9354 302.165 99.9354 303.616C99.9354 305.067 100.079 306.411 100.367 307.648C100.655 308.885 101.114 310.037 101.743 311.104H100.975ZM104.1 308.064C103.919 308.064 103.759 308 103.62 307.872C103.492 307.733 103.428 307.568 103.428 307.376C103.428 307.184 103.492 307.024 103.62 306.896C103.759 306.768 103.919 306.704 104.1 306.704C104.281 306.704 104.436 306.768 104.564 306.896C104.703 307.024 104.772 307.184 104.772 307.376C104.772 307.568 104.703 307.733 104.564 307.872C104.436 308 104.281 308.064 104.1 308.064ZM107.303 308.064C107.122 308.064 106.962 308 106.823 307.872C106.695 307.733 106.631 307.568 106.631 307.376C106.631 307.184 106.695 307.024 106.823 306.896C106.962 306.768 107.122 306.704 107.303 306.704C107.484 306.704 107.639 306.768 107.767 306.896C107.906 307.024 107.975 307.184 107.975 307.376C107.975 307.568 107.906 307.733 107.767 307.872C107.639 308 107.484 308.064 107.303 308.064ZM110.506 308.064C110.325 308.064 110.165 308 110.026 307.872C109.898 307.733 109.834 307.568 109.834 307.376C109.834 307.184 109.898 307.024 110.026 306.896C110.165 306.768 110.325 306.704 110.506 306.704C110.688 306.704 110.842 306.768 110.97 306.896C111.109 307.024 111.178 307.184 111.178 307.376C111.178 307.568 111.109 307.733 110.97 307.872C110.842 308 110.688 308.064 110.506 308.064ZM113.629 311.104H112.877C113.496 310.037 113.949 308.885 114.237 307.648C114.525 306.411 114.669 305.067 114.669 303.616C114.669 302.165 114.525 300.821 114.237 299.584C113.949 298.347 113.496 297.195 112.877 296.128H113.629C114.216 297.067 114.669 298.181 114.989 299.472C115.309 300.752 115.469 302.133 115.469 303.616C115.469 305.099 115.309 306.475 114.989 307.744C114.669 309.013 114.216 310.133 113.629 311.104ZM122.975 308.064C122.794 308.064 122.634 308 122.495 307.872C122.367 307.733 122.303 307.568 122.303 307.376C122.303 307.184 122.367 307.024 122.495 306.896C122.634 306.768 122.794 306.704 122.975 306.704C123.156 306.704 123.311 306.768 123.439 306.896C123.578 307.024 123.647 307.184 123.647 307.376C123.647 307.568 123.578 307.733 123.439 307.872C123.311 308 123.156 308.064 122.975 308.064ZM126.178 308.064C125.997 308.064 125.837 308 125.698 307.872C125.57 307.733 125.506 307.568 125.506 307.376C125.506 307.184 125.57 307.024 125.698 306.896C125.837 306.768 125.997 306.704 126.178 306.704C126.359 306.704 126.514 306.768 126.642 306.896C126.781 307.024 126.85 307.184 126.85 307.376C126.85 307.568 126.781 307.733 126.642 307.872C126.514 308 126.359 308.064 126.178 308.064ZM129.381 308.064C129.2 308.064 129.04 308 128.901 307.872C128.773 307.733 128.709 307.568 128.709 307.376C128.709 307.184 128.773 307.024 128.901 306.896C129.04 306.768 129.2 306.704 129.381 306.704C129.563 306.704 129.717 306.768 129.845 306.896C129.984 307.024 130.053 307.184 130.053 307.376C130.053 307.568 129.984 307.733 129.845 307.872C129.717 308 129.563 308.064 129.381 308.064ZM136.086 304.064V303.344H140.198V304.064H136.086ZM142.694 308.064C142.512 308.064 142.352 308 142.214 307.872C142.086 307.733 142.022 307.568 142.022 307.376C142.022 307.184 142.086 307.024 142.214 306.896C142.352 306.768 142.512 306.704 142.694 306.704C142.875 306.704 143.03 306.768 143.158 306.896C143.296 307.024 143.366 307.184 143.366 307.376C143.366 307.568 143.296 307.733 143.158 307.872C143.03 308 142.875 308.064 142.694 308.064ZM145.897 308.064C145.716 308.064 145.556 308 145.417 307.872C145.289 307.733 145.225 307.568 145.225 307.376C145.225 307.184 145.289 307.024 145.417 306.896C145.556 306.768 145.716 306.704 145.897 306.704C146.078 306.704 146.233 306.768 146.361 306.896C146.5 307.024 146.569 307.184 146.569 307.376C146.569 307.568 146.5 307.733 146.361 307.872C146.233 308 146.078 308.064 145.897 308.064ZM149.1 308.064C148.919 308.064 148.759 308 148.62 307.872C148.492 307.733 148.428 307.568 148.428 307.376C148.428 307.184 148.492 307.024 148.62 306.896C148.759 306.768 148.919 306.704 149.1 306.704C149.281 306.704 149.436 306.768 149.564 306.896C149.703 307.024 149.772 307.184 149.772 307.376C149.772 307.568 149.703 307.733 149.564 307.872C149.436 308 149.281 308.064 149.1 308.064ZM155.805 304.064V303.344H159.917V304.064H155.805ZM166.616 308.064C166.434 308.064 166.274 308 166.136 307.872C166.008 307.733 165.944 307.568 165.944 307.376C165.944 307.184 166.008 307.024 166.136 306.896C166.274 306.768 166.434 306.704 166.616 306.704C166.797 306.704 166.952 306.768 167.08 306.896C167.218 307.024 167.288 307.184 167.288 307.376C167.288 307.568 167.218 307.733 167.08 307.872C166.952 308 166.797 308.064 166.616 308.064ZM169.819 308.064C169.637 308.064 169.477 308 169.339 307.872C169.211 307.733 169.147 307.568 169.147 307.376C169.147 307.184 169.211 307.024 169.339 306.896C169.477 306.768 169.637 306.704 169.819 306.704C170 306.704 170.155 306.768 170.283 306.896C170.421 307.024 170.491 307.184 170.491 307.376C170.491 307.568 170.421 307.733 170.283 307.872C170.155 308 170 308.064 169.819 308.064ZM173.022 308.064C172.841 308.064 172.681 308 172.542 307.872C172.414 307.733 172.35 307.568 172.35 307.376C172.35 307.184 172.414 307.024 172.542 306.896C172.681 306.768 172.841 306.704 173.022 306.704C173.203 306.704 173.358 306.768 173.486 306.896C173.625 307.024 173.694 307.184 173.694 307.376C173.694 307.568 173.625 307.733 173.486 307.872C173.358 308 173.203 308.064 173.022 308.064Z" fill="#CCCCCC"/>
<rect x="50.5" y="277.5" width="449" height="49" rx="24.5" stroke="#CCCCCC"/>
<rect width="450" height="50" transform="translate(50 347)" fill="#2F4425"/>
<rect x="50" y="347" width="450" height="50" rx="25" fill="#2F4425"/>
<path d="M207.964 376.896L208.636 375.376C209.116 375.707 209.639 375.963 210.204 376.144C210.78 376.315 211.351 376.405 211.916 376.416C212.481 376.427 212.993 376.363 213.452 376.224C213.921 376.085 214.295 375.877 214.572 375.6C214.849 375.323 214.988 374.976 214.988 374.56C214.988 374.059 214.78 373.685 214.364 373.44C213.959 373.184 213.404 373.056 212.7 373.056H210.092V371.424H212.54C213.169 371.424 213.655 371.296 213.996 371.04C214.348 370.784 214.524 370.437 214.524 370C214.524 369.637 214.407 369.339 214.172 369.104C213.948 368.869 213.639 368.693 213.244 368.576C212.86 368.459 212.423 368.405 211.932 368.416C211.452 368.416 210.951 368.491 210.428 368.64C209.905 368.779 209.409 368.987 208.94 369.264L208.284 367.584C208.988 367.211 209.724 366.949 210.492 366.8C211.271 366.651 212.023 366.608 212.748 366.672C213.473 366.736 214.124 366.901 214.7 367.168C215.287 367.435 215.756 367.787 216.108 368.224C216.46 368.651 216.636 369.157 216.636 369.744C216.636 370.277 216.492 370.752 216.204 371.168C215.927 371.573 215.543 371.888 215.052 372.112C214.561 372.336 213.991 372.448 213.34 372.448L213.42 371.936C214.156 371.936 214.796 372.064 215.34 372.32C215.895 372.565 216.321 372.907 216.62 373.344C216.929 373.781 217.084 374.288 217.084 374.864C217.084 375.408 216.945 375.893 216.668 376.32C216.391 376.736 216.012 377.088 215.532 377.376C215.052 377.653 214.503 377.861 213.884 378C213.265 378.128 212.615 378.176 211.932 378.144C211.249 378.112 210.567 377.995 209.884 377.792C209.212 377.589 208.572 377.291 207.964 376.896ZM224.419 378V376.272L224.307 375.904V372.88C224.307 372.293 224.131 371.84 223.779 371.52C223.427 371.189 222.893 371.024 222.179 371.024C221.699 371.024 221.224 371.099 220.755 371.248C220.296 371.397 219.907 371.605 219.587 371.872L218.803 370.416C219.261 370.064 219.805 369.803 220.435 369.632C221.075 369.451 221.736 369.36 222.419 369.36C223.656 369.36 224.611 369.659 225.283 370.256C225.965 370.843 226.307 371.755 226.307 372.992V378H224.419ZM221.731 378.112C221.091 378.112 220.531 378.005 220.051 377.792C219.571 377.568 219.197 377.264 218.931 376.88C218.675 376.485 218.547 376.043 218.547 375.552C218.547 375.072 218.659 374.64 218.883 374.256C219.117 373.872 219.496 373.568 220.019 373.344C220.541 373.12 221.235 373.008 222.099 373.008H224.579V374.336H222.243C221.56 374.336 221.101 374.448 220.867 374.672C220.632 374.885 220.515 375.152 220.515 375.472C220.515 375.835 220.659 376.123 220.947 376.336C221.235 376.549 221.635 376.656 222.147 376.656C222.637 376.656 223.075 376.544 223.459 376.32C223.853 376.096 224.136 375.765 224.307 375.328L224.643 376.528C224.451 377.029 224.104 377.419 223.603 377.696C223.112 377.973 222.488 378.112 221.731 378.112ZM234.91 378L231.822 373.904L233.454 372.896L237.262 378H234.91ZM228.782 378V369.456H230.782V378H228.782ZM230.19 374.576V372.912H233.086V374.576H230.19ZM233.646 373.968L231.774 373.744L234.91 369.456H237.054L233.646 373.968ZM243.7 378V376.272L243.588 375.904V372.88C243.588 372.293 243.412 371.84 243.06 371.52C242.708 371.189 242.175 371.024 241.46 371.024C240.98 371.024 240.505 371.099 240.036 371.248C239.577 371.397 239.188 371.605 238.868 371.872L238.084 370.416C238.543 370.064 239.087 369.803 239.716 369.632C240.356 369.451 241.017 369.36 241.7 369.36C242.937 369.36 243.892 369.659 244.564 370.256C245.247 370.843 245.588 371.755 245.588 372.992V378H243.7ZM241.012 378.112C240.372 378.112 239.812 378.005 239.332 377.792C238.852 377.568 238.479 377.264 238.212 376.88C237.956 376.485 237.828 376.043 237.828 375.552C237.828 375.072 237.94 374.64 238.164 374.256C238.399 373.872 238.777 373.568 239.3 373.344C239.823 373.12 240.516 373.008 241.38 373.008H243.86V374.336H241.524C240.841 374.336 240.383 374.448 240.148 374.672C239.913 374.885 239.796 375.152 239.796 375.472C239.796 375.835 239.94 376.123 240.228 376.336C240.516 376.549 240.916 376.656 241.428 376.656C241.919 376.656 242.356 376.544 242.74 376.32C243.135 376.096 243.417 375.765 243.588 375.328L243.924 376.528C243.732 377.029 243.385 377.419 242.884 377.696C242.393 377.973 241.769 378.112 241.012 378.112ZM250.657 378.144C251.447 378.144 252.145 378.032 252.753 377.808C253.372 377.584 253.857 377.275 254.209 376.88C254.561 376.475 254.737 376.011 254.737 375.488C254.737 374.837 254.465 374.325 253.921 373.952C253.377 373.568 252.631 373.376 251.681 373.376L251.617 373.808C252.172 373.808 252.663 373.717 253.089 373.536C253.527 373.355 253.868 373.104 254.113 372.784C254.369 372.453 254.497 372.085 254.497 371.68C254.497 371.189 254.321 370.763 253.969 370.4C253.617 370.037 253.137 369.76 252.529 369.568C251.921 369.376 251.228 369.296 250.449 369.328C249.937 369.339 249.42 369.413 248.897 369.552C248.385 369.68 247.857 369.867 247.313 370.112L247.825 371.584C248.295 371.381 248.753 371.227 249.201 371.12C249.66 371.013 250.103 370.96 250.529 370.96C250.935 370.96 251.281 371.003 251.569 371.088C251.857 371.163 252.076 371.28 252.225 371.44C252.385 371.589 252.465 371.765 252.465 371.968C252.465 372.171 252.401 372.347 252.273 372.496C252.145 372.645 251.959 372.757 251.713 372.832C251.479 372.907 251.191 372.944 250.849 372.944H249.361V374.288H251.009C251.553 374.288 251.969 374.379 252.257 374.56C252.556 374.731 252.705 374.987 252.705 375.328C252.705 375.563 252.615 375.771 252.433 375.952C252.263 376.133 252.017 376.272 251.697 376.368C251.377 376.453 250.993 376.496 250.545 376.496C250.023 376.496 249.5 376.432 248.977 376.304C248.455 376.176 247.985 375.995 247.569 375.76L247.009 377.248C247.521 377.536 248.092 377.76 248.721 377.92C249.361 378.069 250.007 378.144 250.657 378.144ZM261.981 378V376.272L261.869 375.904V372.88C261.869 372.293 261.693 371.84 261.341 371.52C260.989 371.189 260.456 371.024 259.741 371.024C259.261 371.024 258.786 371.099 258.317 371.248C257.858 371.397 257.469 371.605 257.149 371.872L256.365 370.416C256.824 370.064 257.368 369.803 257.997 369.632C258.637 369.451 259.298 369.36 259.981 369.36C261.218 369.36 262.173 369.659 262.845 370.256C263.528 370.843 263.869 371.755 263.869 372.992V378H261.981ZM259.293 378.112C258.653 378.112 258.093 378.005 257.613 377.792C257.133 377.568 256.76 377.264 256.493 376.88C256.237 376.485 256.109 376.043 256.109 375.552C256.109 375.072 256.221 374.64 256.445 374.256C256.68 373.872 257.058 373.568 257.581 373.344C258.104 373.12 258.797 373.008 259.661 373.008H262.141V374.336H259.805C259.122 374.336 258.664 374.448 258.429 374.672C258.194 374.885 258.077 375.152 258.077 375.472C258.077 375.835 258.221 376.123 258.509 376.336C258.797 376.549 259.197 376.656 259.709 376.656C260.2 376.656 260.637 376.544 261.021 376.32C261.416 376.096 261.698 375.765 261.869 375.328L262.205 376.528C262.013 377.029 261.666 377.419 261.165 377.696C260.674 377.973 260.05 378.112 259.293 378.112ZM268.12 378V370.672L268.584 371.152H265.112V369.456H273.112V371.152H269.656L270.12 370.672V378H268.12ZM278.851 372.272C279.949 372.272 280.787 372.517 281.363 373.008C281.939 373.499 282.227 374.192 282.227 375.088C282.227 376.016 281.907 376.741 281.267 377.264C280.627 377.776 279.725 378.027 278.563 378.016L274.563 378V369.456H276.563V372.256L278.851 372.272ZM278.387 376.544C278.973 376.555 279.421 376.432 279.731 376.176C280.04 375.92 280.195 375.547 280.195 375.056C280.195 374.565 280.04 374.213 279.731 374C279.432 373.776 278.984 373.659 278.387 373.648L276.563 373.632V376.528L278.387 376.544ZM291.111 378.144C291.9 378.144 292.599 378.032 293.207 377.808C293.825 377.584 294.311 377.275 294.663 376.88C295.015 376.475 295.191 376.011 295.191 375.488C295.191 374.837 294.919 374.325 294.375 373.952C293.831 373.568 293.084 373.376 292.135 373.376L292.071 373.808C292.625 373.808 293.116 373.717 293.543 373.536C293.98 373.355 294.321 373.104 294.567 372.784C294.823 372.453 294.951 372.085 294.951 371.68C294.951 371.189 294.775 370.763 294.423 370.4C294.071 370.037 293.591 369.76 292.983 369.568C292.375 369.376 291.681 369.296 290.903 369.328C290.391 369.339 289.873 369.413 289.351 369.552C288.839 369.68 288.311 369.867 287.767 370.112L288.279 371.584C288.748 371.381 289.207 371.227 289.655 371.12C290.113 371.013 290.556 370.96 290.983 370.96C291.388 370.96 291.735 371.003 292.023 371.088C292.311 371.163 292.529 371.28 292.679 371.44C292.839 371.589 292.919 371.765 292.919 371.968C292.919 372.171 292.855 372.347 292.727 372.496C292.599 372.645 292.412 372.757 292.167 372.832C291.932 372.907 291.644 372.944 291.303 372.944H289.815V374.288H291.463C292.007 374.288 292.423 374.379 292.711 374.56C293.009 374.731 293.159 374.987 293.159 375.328C293.159 375.563 293.068 375.771 292.887 375.952C292.716 376.133 292.471 376.272 292.151 376.368C291.831 376.453 291.447 376.496 290.999 376.496C290.476 376.496 289.953 376.432 289.431 376.304C288.908 376.176 288.439 375.995 288.023 375.76L287.463 377.248C287.975 377.536 288.545 377.76 289.174 377.92C289.815 378.069 290.46 378.144 291.111 378.144ZM297.25 378V369.456H301.426C302.461 369.456 303.272 369.648 303.858 370.032C304.456 370.416 304.754 370.96 304.754 371.664C304.754 372.357 304.477 372.901 303.922 373.296C303.368 373.68 302.632 373.872 301.714 373.872L301.954 373.376C302.989 373.376 303.757 373.568 304.258 373.952C304.77 374.325 305.026 374.875 305.026 375.6C305.026 376.357 304.744 376.949 304.178 377.376C303.613 377.792 302.754 378 301.602 378H297.25ZM299.154 376.544H301.442C301.986 376.544 302.397 376.459 302.674 376.288C302.952 376.107 303.09 375.835 303.09 375.472C303.09 375.088 302.962 374.805 302.706 374.624C302.45 374.443 302.05 374.352 301.506 374.352H299.154V376.544ZM299.154 373.024H301.25C301.762 373.024 302.146 372.933 302.402 372.752C302.669 372.56 302.802 372.293 302.802 371.952C302.802 371.6 302.669 371.339 302.402 371.168C302.146 370.997 301.762 370.912 301.25 370.912H299.154V373.024ZM310.965 378.112C310.09 378.112 309.311 377.925 308.629 377.552C307.946 377.168 307.407 376.645 307.013 375.984C306.618 375.323 306.421 374.571 306.421 373.728C306.421 372.875 306.618 372.123 307.013 371.472C307.407 370.811 307.946 370.293 308.629 369.92C309.311 369.547 310.09 369.36 310.965 369.36C311.85 369.36 312.634 369.547 313.317 369.92C314.01 370.293 314.549 370.805 314.933 371.456C315.327 372.107 315.525 372.864 315.525 373.728C315.525 374.571 315.327 375.323 314.933 375.984C314.549 376.645 314.01 377.168 313.317 377.552C312.634 377.925 311.85 378.112 310.965 378.112ZM310.965 376.4C311.455 376.4 311.893 376.293 312.277 376.08C312.661 375.867 312.959 375.557 313.173 375.152C313.397 374.747 313.509 374.272 313.509 373.728C313.509 373.173 313.397 372.699 313.173 372.304C312.959 371.899 312.661 371.589 312.277 371.376C311.893 371.163 311.461 371.056 310.981 371.056C310.49 371.056 310.053 371.163 309.669 371.376C309.295 371.589 308.997 371.899 308.773 372.304C308.549 372.699 308.437 373.173 308.437 373.728C308.437 374.272 308.549 374.747 308.773 375.152C308.997 375.557 309.295 375.867 309.669 376.08C310.053 376.293 310.485 376.4 310.965 376.4ZM317.5 378V369.456H319.5V372.928H323.804V369.456H325.804V378H323.804V374.624H319.5V378H317.5ZM332.293 378.112C331.418 378.112 330.639 377.925 329.957 377.552C329.274 377.168 328.735 376.645 328.341 375.984C327.946 375.323 327.749 374.571 327.749 373.728C327.749 372.875 327.946 372.123 328.341 371.472C328.735 370.811 329.274 370.293 329.957 369.92C330.639 369.547 331.418 369.36 332.293 369.36C333.178 369.36 333.962 369.547 334.645 369.92C335.338 370.293 335.877 370.805 336.261 371.456C336.655 372.107 336.853 372.864 336.853 373.728C336.853 374.571 336.655 375.323 336.261 375.984C335.877 376.645 335.338 377.168 334.645 377.552C333.962 377.925 333.178 378.112 332.293 378.112ZM332.293 376.4C332.783 376.4 333.221 376.293 333.605 376.08C333.989 375.867 334.287 375.557 334.501 375.152C334.725 374.747 334.837 374.272 334.837 373.728C334.837 373.173 334.725 372.699 334.501 372.304C334.287 371.899 333.989 371.589 333.605 371.376C333.221 371.163 332.789 371.056 332.309 371.056C331.818 371.056 331.381 371.163 330.997 371.376C330.623 371.589 330.325 371.899 330.101 372.304C329.877 372.699 329.765 373.173 329.765 373.728C329.765 374.272 329.877 374.747 330.101 375.152C330.325 375.557 330.623 375.867 330.997 376.08C331.381 376.293 331.813 376.4 332.293 376.4ZM344.956 378L341.868 373.904L343.5 372.896L347.308 378H344.956ZM338.828 378V369.456H340.828V378H338.828ZM340.236 374.576V372.912H343.132V374.576H340.236ZM343.692 373.968L341.82 373.744L344.956 369.456H347.1L343.692 373.968Z" fill="white"/>
</g>
<defs>
<filter id="filter0_d_3_16789" x="0" y="0" width="550" height="451" filterUnits="userSpaceOnUse" color-interpolation-filters="sRGB">
<feFlood flood-opacity="0" result="BackgroundImageFix"/>
<feColorMatrix in="SourceAlpha" type="matrix" values="0 0 0 0 0 0 0 0 0 0 0 0 0 0 0 0 0 0 127 0" result="hardAlpha"/>
<feOffset dy="4"/>
<feGaussianBlur stdDeviation="10"/>
<feComposite in2="hardAlpha" operator="out"/>
<feColorMatrix type="matrix" values="0 0 0 0 0.8 0 0 0 0 0.8 0 0 0 0 0.8 0 0 0 0.25 0"/>
<feBlend mode="normal" in2="BackgroundImageFix" result="effect1_dropShadow_3_16789"/>
<feBlend mode="normal" in="SourceGraphic" in2="effect1_dropShadow_3_16789" result="shape"/>
</filter>
</defs>
</svg>
