<svg width="20" height="24" viewBox="0 0 20 24" fill="none" xmlns="http://www.w3.org/2000/svg">
<path d="M3.44677 3.31049C5.17793 1.67819 7.53393 0.752838 10 0.75C12.4661 0.752838 14.8221 1.67819 16.5532 3.31049C18.2831 4.94156 19.2472 7.14329 19.25 9.42984C19.2497 13.1866 17.125 16.5521 14.8501 19.0658C12.6295 21.5197 10.3605 23.0573 10.1184 23.2191C10.086 23.238 10.0449 23.25 10 23.25C9.95506 23.25 9.91399 23.238 9.88162 23.2191C9.63955 23.0573 7.37048 21.5197 5.14985 19.0658C2.87496 16.552 0.750173 13.1863 0.75 9.42939C0.752875 7.14301 1.71703 4.94145 3.44677 3.31049ZM12.42 5.94351C11.7001 5.48995 10.8581 5.25023 10 5.25023C8.85043 5.25023 7.73971 5.68041 6.91418 6.4588C6.08716 7.23859 5.61364 8.30597 5.61364 9.42894C5.61364 10.2656 5.87699 11.0794 6.36455 11.7675C6.85168 12.4549 7.53929 12.9843 8.33558 13.2953C9.13161 13.6062 10.0052 13.6869 10.8477 13.5289C11.6902 13.3709 12.4698 12.9799 13.0858 12.3991C13.7023 11.8178 14.1275 11.0718 14.3003 10.2527C14.4732 9.4331 14.384 8.58414 14.0462 7.81518C13.7087 7.04683 13.1403 6.39732 12.42 5.94351Z" fill="white" stroke="#32A0FF" stroke-width="1.5"/>
</svg>
