<svg width="46" height="40" viewBox="0 0 46 40" fill="none" xmlns="http://www.w3.org/2000/svg">
<path d="M44.875 0.245537H17.1964C16.9509 0.245537 16.75 0.44643 16.75 0.691965V3.81697C16.75 4.0625 16.9509 4.26339 17.1964 4.26339H44.875C45.1206 4.26339 45.3214 4.0625 45.3214 3.81697V0.691965C45.3214 0.44643 45.1206 0.245537 44.875 0.245537ZM44.875 23.9063H17.1964C16.9509 23.9063 16.75 24.1071 16.75 24.3527V27.4777C16.75 27.7232 16.9509 27.9241 17.1964 27.9241H44.875C45.1206 27.9241 45.3214 27.7232 45.3214 27.4777V24.3527C45.3214 24.1071 45.1206 23.9063 44.875 23.9063ZM44.875 35.7366H1.12502C0.879482 35.7366 0.678589 35.9375 0.678589 36.183V39.308C0.678589 39.5536 0.879482 39.7545 1.12502 39.7545H44.875C45.1206 39.7545 45.3214 39.5536 45.3214 39.308V36.183C45.3214 35.9375 45.1206 35.7366 44.875 35.7366ZM44.875 12.0759H1.12502C0.879482 12.0759 0.678589 12.2768 0.678589 12.5223V15.6473C0.678589 15.8929 0.879482 16.0938 1.12502 16.0938H44.875C45.1206 16.0938 45.3214 15.8929 45.3214 15.6473V12.5223C45.3214 12.2768 45.1206 12.0759 44.875 12.0759Z" fill="black"/>
</svg>
